<?xml version="1.0" encoding="UTF-8" standalone="no"?>
<svg
   width="595.849824pt"
   height="338.4pt"
   viewBox="0 0 595.849824 338.4"
   version="1.1"
   id="svg169"
   sodipodi:docname="charging_time.svg"
   inkscape:version="1.3.2 (091e20ef0f, 2023-11-25, custom)"
   xmlns:inkscape="http://www.inkscape.org/namespaces/inkscape"
   xmlns:sodipodi="http://sodipodi.sourceforge.net/DTD/sodipodi-0.dtd"
   xmlns:xlink="http://www.w3.org/1999/xlink"
   xmlns="http://www.w3.org/2000/svg"
   xmlns:svg="http://www.w3.org/2000/svg"
   xmlns:rdf="http://www.w3.org/1999/02/22-rdf-syntax-ns#"
   xmlns:cc="http://creativecommons.org/ns#"
   xmlns:dc="http://purl.org/dc/elements/1.1/">
  <sodipodi:namedview
     id="namedview169"
     pagecolor="#ffffff"
     bordercolor="#999999"
     borderopacity="1"
     inkscape:showpageshadow="2"
     inkscape:pageopacity="0"
     inkscape:pagecheckerboard="0"
     inkscape:deskcolor="#d1d1d1"
     inkscape:document-units="pt"
     inkscape:zoom="3.180751"
     inkscape:cx="397.23324"
     inkscape:cy="225.73286"
     inkscape:window-width="3840"
     inkscape:window-height="2120"
     inkscape:window-x="3840"
     inkscape:window-y="0"
     inkscape:window-maximized="1"
     inkscape:current-layer="figure_1" />
  <metadata
     id="metadata1">
    <rdf:RDF>
      <cc:Work>
        <dc:type
           rdf:resource="http://purl.org/dc/dcmitype/StillImage" />
        <dc:date>2024-05-27T15:29:41.549389</dc:date>
        <dc:format>image/svg+xml</dc:format>
        <dc:creator>
          <cc:Agent>
            <dc:title>Matplotlib v3.8.4, https://matplotlib.org/</dc:title>
          </cc:Agent>
        </dc:creator>
      </cc:Work>
    </rdf:RDF>
  </metadata>
  <defs
     id="defs1">
    <style
       type="text/css"
       id="style1">*{stroke-linejoin: round; stroke-linecap: butt}</style>
  </defs>
  <g
     id="figure_1">
    <g
       id="axes_1">
      <g
         id="patch_2">
        <path
           d="M 53.078626 292.572031  L 446.4 292.572031  L 446.4 7.2  L 53.078626 7.2  z "
           style="fill: #ffffff"
           id="path2" />
      </g>
      <g
         id="matplotlib.axis_1">
        <g
           id="xtick_1">
          <g
             id="text_1">
            <!-- $\Downarrow$ -->
            <g
               style="fill: #262626"
               transform="translate(82.50685 309.682378) scale(0.11 -0.11)"
               id="g2">
              <defs
                 id="defs2">
                <path
                   id="CMSY10-2b"
                   d="M 2697 4211  C 2697 4326 2697 4442 2569 4442  C 2441 4442 2441 4320 2441 4211  L 2441 154  C 2192 -141 2020 -493 1949 -653  C 1873 -480 1700 -134 1458 154  L 1458 4211  C 1458 4326 1458 4442 1330 4442  C 1202 4442 1202 4326 1202 4211  L 1202 448  C 952 678 862 736 760 806  C 549 954 306 1088 267 1088  C 197 1088 197 1018 197 960  C 197 870 197 858 274 819  C 1265 307 1681 -467 1885 -1184  C 1892 -1222 1924 -1235 1949 -1235  C 2001 -1235 2013 -1190 2020 -1165  C 2263 -326 2736 358 3651 832  C 3702 858 3702 890 3702 960  C 3702 1018 3702 1088 3632 1088  C 3593 1088 3337 947 3139 813  C 3005 717 2915 646 2697 448  L 2697 4211  z "
                   transform="scale(0.015625)" />
              </defs>
              <use
                 xlink:href="#CMSY10-2b"
                 transform="scale(0.996264)"
                 id="use2" />
            </g>
          </g>
        </g>
        <g
           id="xtick_2">
          <g
             id="text_2">
            <!-- $\Updownarrow_{10\%}$ -->
            <g
               style="fill: #262626"
               transform="translate(140.092383 310.291209) scale(0.11 -0.11)"
               id="g6">
              <defs
                 id="defs3">
                <path
                   id="CMSY10-6d"
                   d="M 2697 3520  C 3126 3155 3593 2970 3632 2970  C 3702 2970 3702 3034 3702 3091  C 3702 3181 3702 3200 3645 3226  C 2967 3520 2404 3981 2039 4832  C 2007 4915 1994 4934 1949 4934  C 1905 4934 1892 4909 1860 4838  C 1463 3891 779 3456 344 3264  C 229 3206 222 3200 216 3194  C 197 3181 197 3168 197 3091  C 197 3034 197 2970 267 2970  C 306 2970 773 3162 1202 3520  L 1202 -320  C 773 45 306 230 267 230  C 197 230 197 166 197 109  C 197 19 197 0 254 -26  C 932 -320 1495 -781 1860 -1632  C 1892 -1715 1905 -1734 1949 -1734  C 1994 -1734 2007 -1709 2039 -1638  C 2436 -691 3120 -256 3555 -64  C 3670 -6 3677 0 3683 6  C 3702 19 3702 32 3702 109  C 3702 166 3702 230 3632 230  C 3593 230 3126 38 2697 -320  L 2697 3520  z M 1458 3776  C 1668 3994 1834 4237 1949 4448  C 2064 4237 2231 3994 2441 3776  L 2441 -576  C 2231 -794 2064 -1037 1949 -1248  C 1834 -1037 1668 -794 1458 -576  L 1458 3776  z "
                   transform="scale(0.015625)" />
                <path
                   id="CMR17-31"
                   d="M 1702 4058  C 1702 4192 1696 4192 1606 4192  C 1357 3916 979 3827 621 3827  C 602 3827 570 3827 563 3808  C 557 3795 557 3782 557 3648  C 755 3648 1088 3686 1344 3839  L 1344 461  C 1344 236 1331 160 781 160  L 589 160  L 589 0  C 896 0 1216 0 1523 0  C 1830 0 2150 0 2458 0  L 2458 160  L 2266 160  C 1715 160 1702 230 1702 458  L 1702 4058  z "
                   transform="scale(0.015625)" />
                <path
                   id="CMR17-30"
                   d="M 2688 2025  C 2688 2416 2682 3080 2413 3591  C 2176 4039 1798 4198 1466 4198  C 1158 4198 768 4058 525 3597  C 269 3118 243 2524 243 2025  C 243 1661 250 1106 448 619  C 723 -39 1216 -128 1466 -128  C 1760 -128 2208 -7 2470 600  C 2662 1042 2688 1559 2688 2025  z M 1466 -26  C 1056 -26 813 325 723 812  C 653 1188 653 1738 653 2096  C 653 2588 653 2997 736 3387  C 858 3929 1216 4096 1466 4096  C 1728 4096 2067 3923 2189 3400  C 2272 3036 2278 2607 2278 2096  C 2278 1680 2278 1169 2202 792  C 2067 95 1690 -26 1466 -26  z "
                   transform="scale(0.015625)" />
                <path
                   id="CMR17-25"
                   d="M 4640 959  C 4640 1698 4275 2240 3846 2240  C 3411 2240 2970 1736 2970 959  C 2970 183 3405 -320 3846 -320  C 4275 -320 4640 215 4640 959  z M 3853 -218  C 3686 -218 3270 -66 3270 959  C 3270 1991 3686 2138 3853 2138  C 4205 2138 4525 1634 4525 959  C 4525 285 4205 -218 3853 -218  z M 4083 4577  C 4128 4647 4134 4653 4134 4685  C 4134 4761 4077 4800 4026 4800  C 3962 4800 3936 4756 3891 4706  C 3520 4190 3008 4134 2746 4134  C 2106 4134 1715 4494 1594 4607  C 1510 4682 1389 4800 1171 4800  C 736 4800 294 4296 294 3519  C 294 2743 730 2240 1171 2240  C 1600 2240 1965 2778 1965 3527  C 1965 3969 1830 4270 1811 4308  C 2202 4064 2586 4032 2752 4032  C 3162 4032 3456 4183 3616 4289  L 3622 4283  L 858 -84  C 800 -174 800 -187 800 -206  C 800 -276 858 -320 915 -320  C 973 -320 992 -289 1037 -218  L 4083 4577  z M 1178 2342  C 1011 2342 595 2494 595 3519  C 595 4551 1011 4698 1178 4698  C 1530 4698 1850 4194 1850 3519  C 1850 2845 1530 2342 1178 2342  z "
                   transform="scale(0.015625)" />
              </defs>
              <use
                 xlink:href="#CMSY10-6d"
                 transform="scale(0.996264)"
                 id="use3" />
              <use
                 xlink:href="#CMR17-31"
                 transform="translate(60.882941 -17.925121) scale(0.697382)"
                 id="use4" />
              <use
                 xlink:href="#CMR17-30"
                 transform="translate(92.866123 -17.925121) scale(0.697382)"
                 id="use5" />
              <use
                 xlink:href="#CMR17-25"
                 transform="translate(124.849305 -17.925121) scale(0.697382)"
                 id="use6" />
            </g>
          </g>
        </g>
        <g
           id="xtick_3">
          <g
             id="text_3">
            <!-- $\Updownarrow_{20\%}$ -->
            <g
               style="fill: #262626"
               transform="translate(205.645945 310.291209) scale(0.11 -0.11)"
               id="g10">
              <defs
                 id="defs6">
                <path
                   id="CMR17-32"
                   d="M 2669 989  L 2554 989  C 2490 536 2438 459 2413 420  C 2381 369 1920 369 1830 369  L 602 369  C 832 619 1280 1072 1824 1597  C 2214 1967 2669 2402 2669 3035  C 2669 3790 2067 4224 1395 4224  C 691 4224 262 3604 262 3030  C 262 2780 448 2748 525 2748  C 589 2748 781 2787 781 3010  C 781 3207 614 3264 525 3264  C 486 3264 448 3258 422 3245  C 544 3790 915 4058 1306 4058  C 1862 4058 2227 3617 2227 3035  C 2227 2479 1901 2000 1536 1584  L 262 146  L 262 0  L 2515 0  L 2669 989  z "
                   transform="scale(0.015625)" />
              </defs>
              <use
                 xlink:href="#CMSY10-6d"
                 transform="scale(0.996264)"
                 id="use7" />
              <use
                 xlink:href="#CMR17-32"
                 transform="translate(60.882941 -17.925121) scale(0.697382)"
                 id="use8" />
              <use
                 xlink:href="#CMR17-30"
                 transform="translate(92.866123 -17.925121) scale(0.697382)"
                 id="use9" />
              <use
                 xlink:href="#CMR17-25"
                 transform="translate(124.849305 -17.925121) scale(0.697382)"
                 id="use10" />
            </g>
          </g>
        </g>
        <g
           id="xtick_4">
          <g
             id="text_4">
            <!-- $\Updownarrow_{30\%}$ -->
            <g
               style="fill: #262626"
               transform="translate(271.199507 310.291209) scale(0.11 -0.11)"
               id="g14">
              <defs
                 id="defs10">
                <path
                   id="CMR17-33"
                   d="M 1414 2157  C 1984 2157 2234 1662 2234 1090  C 2234 320 1824 25 1453 25  C 1114 25 563 194 390 693  C 422 680 454 680 486 680  C 640 680 755 782 755 948  C 755 1133 614 1216 486 1216  C 378 1216 211 1165 211 926  C 211 335 787 -128 1466 -128  C 2176 -128 2720 430 2720 1085  C 2720 1707 2208 2157 1600 2227  C 2086 2328 2554 2756 2554 3329  C 2554 3820 2048 4179 1472 4179  C 890 4179 378 3829 378 3329  C 378 3110 544 3072 627 3072  C 762 3072 877 3155 877 3321  C 877 3486 762 3569 627 3569  C 602 3569 570 3569 544 3557  C 730 3959 1235 4032 1459 4032  C 1683 4032 2106 3925 2106 3320  C 2106 3143 2080 2828 1862 2550  C 1670 2304 1453 2304 1242 2284  C 1210 2284 1062 2269 1037 2269  C 992 2263 966 2257 966 2208  C 966 2163 973 2157 1101 2157  L 1414 2157  z "
                   transform="scale(0.015625)" />
              </defs>
              <use
                 xlink:href="#CMSY10-6d"
                 transform="scale(0.996264)"
                 id="use11" />
              <use
                 xlink:href="#CMR17-33"
                 transform="translate(60.882941 -17.925121) scale(0.697382)"
                 id="use12" />
              <use
                 xlink:href="#CMR17-30"
                 transform="translate(92.866123 -17.925121) scale(0.697382)"
                 id="use13" />
              <use
                 xlink:href="#CMR17-25"
                 transform="translate(124.849305 -17.925121) scale(0.697382)"
                 id="use14" />
            </g>
          </g>
        </g>
        <g
           id="xtick_5">
          <g
             id="text_5">
            <!-- $\Updownarrow_{40\%}$ -->
            <g
               style="fill: #262626"
               transform="translate(336.75307 310.291209) scale(0.11 -0.11)"
               id="g18">
              <defs
                 id="defs14">
                <path
                   id="CMR17-34"
                   d="M 2150 4122  C 2150 4256 2144 4256 2029 4256  L 128 1254  L 128 1088  L 1779 1088  L 1779 457  C 1779 224 1766 160 1318 160  L 1197 160  L 1197 0  C 1402 0 1747 0 1965 0  C 2182 0 2528 0 2733 0  L 2733 160  L 2611 160  C 2163 160 2150 224 2150 457  L 2150 1088  L 2803 1088  L 2803 1254  L 2150 1254  L 2150 4122  z M 1798 3703  L 1798 1254  L 256 1254  L 1798 3703  z "
                   transform="scale(0.015625)" />
              </defs>
              <use
                 xlink:href="#CMSY10-6d"
                 transform="scale(0.996264)"
                 id="use15" />
              <use
                 xlink:href="#CMR17-34"
                 transform="translate(60.882941 -17.925121) scale(0.697382)"
                 id="use16" />
              <use
                 xlink:href="#CMR17-30"
                 transform="translate(92.866123 -17.925121) scale(0.697382)"
                 id="use17" />
              <use
                 xlink:href="#CMR17-25"
                 transform="translate(124.849305 -17.925121) scale(0.697382)"
                 id="use18" />
            </g>
          </g>
        </g>
        <g
           id="xtick_6">
          <g
             id="text_6">
            <!-- $\Uparrow$ -->
            <g
               style="fill: #262626"
               transform="translate(410.274661 309.682378) scale(0.11 -0.11)"
               id="g19">
              <defs
                 id="defs18">
                <path
                   id="CMSY10-2a"
                   d="M 2697 2752  C 2947 2522 3037 2464 3139 2394  C 3350 2246 3593 2112 3632 2112  C 3702 2112 3702 2182 3702 2240  C 3702 2330 3702 2342 3625 2381  C 2602 2906 2212 3706 2013 4384  C 2007 4422 1975 4435 1949 4435  C 1898 4435 1885 4390 1879 4365  C 1655 3597 1220 2867 248 2368  C 197 2342 197 2310 197 2240  C 197 2182 197 2112 267 2112  C 306 2112 562 2253 760 2387  C 894 2483 984 2554 1202 2752  L 1202 -1011  C 1202 -1126 1202 -1242 1330 -1242  C 1458 -1242 1458 -1126 1458 -1011  L 1458 3046  C 1707 3341 1879 3693 1949 3853  C 2026 3680 2199 3334 2441 3046  L 2441 -1011  C 2441 -1120 2441 -1242 2569 -1242  C 2697 -1242 2697 -1126 2697 -1011  L 2697 2752  z "
                   transform="scale(0.015625)" />
              </defs>
              <use
                 xlink:href="#CMSY10-2a"
                 transform="scale(0.996264)"
                 id="use19" />
            </g>
          </g>
        </g>
        <g
           id="text_7">
          <!-- Thresholds -->
          <g
             style="fill: #262626"
             transform="translate(214.565132 328.100524) scale(0.16 -0.16)"
             id="g29">
            <defs
               id="defs19">
              <path
                 id="CMSS17-54"
                 d="M 2317 3968  L 2848 3968  C 2925 3968 3002 3968 3078 3968  L 3878 3968  L 3878 4376  L 218 4376  L 218 3968  L 1018 3968  C 1094 3968 1171 3968 1248 3968  L 1779 3968  L 1779 -32  L 2317 -32  L 2317 3968  z "
                 transform="scale(0.015625)" />
              <path
                 id="CMSS17-68"
                 d="M 2618 1891  C 2618 2292 2522 2820 1798 2820  C 1395 2820 1133 2623 947 2407  L 947 4448  L 474 4448  L 474 32  L 960 32  L 960 1573  C 960 1973 1114 2432 1549 2432  C 2112 2432 2131 2056 2131 1839  L 2131 32  L 2618 32  L 2618 1891  z "
                 transform="scale(0.015625)" />
              <path
                 id="CMSS17-72"
                 d="M 954 1363  C 954 1965 1395 2368 1958 2368  L 1958 2789  C 1549 2789 1165 2585 934 2253  L 934 2758  L 480 2758  L 480 0  L 954 0  L 954 1363  z "
                 transform="scale(0.015625)" />
              <path
                 id="CMSS17-65"
                 d="M 2502 1377  C 2502 1590 2490 2003 2285 2345  C 2061 2713 1696 2816 1421 2816  C 755 2816 192 2188 192 1375  C 192 582 774 -64 1510 -64  C 1798 -64 2150 19 2470 248  C 2470 274 2458 414 2451 420  C 2451 433 2432 630 2432 656  C 2125 407 1773 325 1517 325  C 1107 325 666 667 646 1377  L 2502 1377  z M 698 1728  C 781 2084 1062 2421 1421 2421  C 1517 2421 1965 2421 2080 1728  L 698 1728  z "
                 transform="scale(0.015625)" />
              <path
                 id="CMSS17-73"
                 d="M 2061 2627  C 1683 2807 1389 2807 1197 2807  C 742 2807 198 2648 198 2003  C 198 1359 902 1218 1094 1179  C 1389 1122 1715 1058 1715 740  C 1715 337 1254 337 1171 337  C 915 337 563 407 243 638  L 166 210  C 531 0 883 -64 1178 -64  C 1965 -64 2163 416 2163 781  C 2163 1094 1984 1305 1862 1401  C 1651 1568 1574 1587 1050 1696  C 960 1709 646 1779 646 2066  C 646 2432 1050 2432 1139 2432  C 1555 2432 1811 2303 1984 2208  L 2061 2627  z "
                 transform="scale(0.015625)" />
              <path
                 id="CMSS17-6f"
                 d="M 2829 1356  C 2829 2176 2221 2816 1504 2816  C 768 2816 173 2157 173 1356  C 173 544 787 -64 1498 -64  C 2227 -64 2829 563 2829 1356  z M 1504 337  C 1050 337 659 709 659 1408  C 659 2151 1114 2427 1498 2427  C 1914 2427 2342 2126 2342 1408  C 2342 683 1926 337 1504 337  z "
                 transform="scale(0.015625)" />
              <path
                 id="CMSS17-6c"
                 d="M 947 4416  L 474 4416  L 474 0  L 947 0  L 947 4416  z "
                 transform="scale(0.015625)" />
              <path
                 id="CMSS17-64"
                 d="M 2611 4416  L 2138 4416  L 2138 2438  C 1939 2603 1613 2756 1254 2756  C 672 2756 211 2131 211 1347  C 211 562 666 -64 1235 -64  C 1677 -64 1971 172 2125 306  L 2125 -13  L 2611 -13  L 2611 4416  z M 2125 836  C 2125 747 2125 653 1926 482  C 1798 375 1645 325 1498 325  C 1152 325 698 576 698 1340  C 698 2134 1210 2368 1562 2368  C 1798 2368 1990 2254 2125 2065  L 2125 836  z "
                 transform="scale(0.015625)" />
            </defs>
            <use
               xlink:href="#CMSS17-54"
               transform="scale(0.996264)"
               id="use20" />
            <use
               xlink:href="#CMSS17-68"
               transform="translate(63.819454 0) scale(0.996264)"
               id="use21" />
            <use
               xlink:href="#CMSS17-72"
               transform="translate(112.024397 0) scale(0.996264)"
               id="use22" />
            <use
               xlink:href="#CMSS17-65"
               transform="translate(143.93417 0) scale(0.996264)"
               id="use23" />
            <use
               xlink:href="#CMSS17-73"
               transform="translate(185.572992 0) scale(0.996264)"
               id="use24" />
            <use
               xlink:href="#CMSS17-68"
               transform="translate(221.486534 0) scale(0.996264)"
               id="use25" />
            <use
               xlink:href="#CMSS17-6f"
               transform="translate(269.691477 0) scale(0.996264)"
               id="use26" />
            <use
               xlink:href="#CMSS17-6c"
               transform="translate(316.5351 0) scale(0.996264)"
               id="use27" />
            <use
               xlink:href="#CMSS17-64"
               transform="translate(338.715823 0) scale(0.996264)"
               id="use28" />
            <use
               xlink:href="#CMSS17-73"
               transform="translate(386.920766 0) scale(0.996264)"
               id="use29" />
          </g>
        </g>
      </g>
      <g
         id="matplotlib.axis_2">
        <g
           id="ytick_1">
          <g
             id="line2d_1">
            <path
               d="M 53.078626 292.572031  L 446.4 292.572031  "
               clip-path="url(#pbf7a8c3a97)"
               style="fill: none; stroke: #cccccc; stroke-linecap: round"
               id="path29" />
          </g>
          <g
             id="text_8">
            <!-- $\mathdefault{0}$ -->
            <g
               style="fill: #262626"
               transform="translate(38.099159 296.377205) scale(0.11 -0.11)"
               id="g30">
              <use
                 xlink:href="#CMR17-30"
                 transform="scale(0.996264)"
                 id="use30" />
            </g>
          </g>
        </g>
        <g
           id="ytick_2">
          <g
             id="line2d_2">
            <path
               d="M 53.078626 260.589344  L 446.4 260.589344  "
               clip-path="url(#pbf7a8c3a97)"
               style="fill: none; stroke: #cccccc; stroke-linecap: round"
               id="path30" />
          </g>
          <g
             id="text_9">
            <!-- $\mathdefault{25}$ -->
            <g
               style="fill: #262626"
               transform="translate(32.619691 264.394517) scale(0.11 -0.11)"
               id="g32">
              <defs
                 id="defs30">
                <path
                   id="CMR17-35"
                   d="M 730 3692  C 794 3666 1056 3584 1325 3584  C 1920 3584 2246 3911 2432 4100  C 2432 4157 2432 4192 2394 4192  C 2387 4192 2374 4192 2323 4163  C 2099 4058 1837 3973 1517 3973  C 1325 3973 1037 3999 723 4139  C 653 4171 640 4171 634 4171  C 602 4171 595 4164 595 4037  L 595 2203  C 595 2089 595 2057 659 2057  C 691 2057 704 2070 736 2114  C 941 2401 1222 2522 1542 2522  C 1766 2522 2246 2382 2246 1289  C 2246 1085 2246 715 2054 421  C 1894 159 1645 25 1370 25  C 947 25 518 320 403 814  C 429 807 480 795 506 795  C 589 795 749 840 749 1038  C 749 1210 627 1280 506 1280  C 358 1280 262 1190 262 1011  C 262 454 704 -128 1382 -128  C 2042 -128 2669 440 2669 1264  C 2669 2030 2170 2624 1549 2624  C 1222 2624 947 2503 730 2274  L 730 3692  z "
                   transform="scale(0.015625)" />
              </defs>
              <use
                 xlink:href="#CMR17-32"
                 transform="scale(0.996264)"
                 id="use31" />
              <use
                 xlink:href="#CMR17-35"
                 transform="translate(45.690477 0) scale(0.996264)"
                 id="use32" />
            </g>
          </g>
        </g>
        <g
           id="ytick_3">
          <g
             id="line2d_3">
            <path
               d="M 53.078626 228.606656  L 446.4 228.606656  "
               clip-path="url(#pbf7a8c3a97)"
               style="fill: none; stroke: #cccccc; stroke-linecap: round"
               id="path32" />
          </g>
          <g
             id="text_10">
            <!-- $\mathdefault{50}$ -->
            <g
               style="fill: #262626"
               transform="translate(32.619691 232.411829) scale(0.11 -0.11)"
               id="g34">
              <use
                 xlink:href="#CMR17-35"
                 transform="scale(0.996264)"
                 id="use33" />
              <use
                 xlink:href="#CMR17-30"
                 transform="translate(45.690477 0) scale(0.996264)"
                 id="use34" />
            </g>
          </g>
        </g>
        <g
           id="ytick_4">
          <g
             id="line2d_4">
            <path
               d="M 53.078626 196.623968  L 446.4 196.623968  "
               clip-path="url(#pbf7a8c3a97)"
               style="fill: none; stroke: #cccccc; stroke-linecap: round"
               id="path34" />
          </g>
          <g
             id="text_11">
            <!-- $\mathdefault{75}$ -->
            <g
               style="fill: #262626"
               transform="translate(32.619691 200.429142) scale(0.11 -0.11)"
               id="g36">
              <defs
                 id="defs34">
                <path
                   id="CMR17-37"
                   d="M 2886 3941  L 2886 4081  L 1382 4081  C 634 4081 621 4165 595 4288  L 480 4288  L 294 3094  L 410 3094  C 429 3215 474 3540 550 3661  C 589 3712 1062 3712 1171 3712  L 2579 3712  L 1869 2661  C 1395 1954 1069 999 1069 165  C 1069 89 1069 -128 1299 -128  C 1530 -128 1530 89 1530 171  L 1530 465  C 1530 1508 1709 2196 2003 2636  L 2886 3941  z "
                   transform="scale(0.015625)" />
              </defs>
              <use
                 xlink:href="#CMR17-37"
                 transform="scale(0.996264)"
                 id="use35" />
              <use
                 xlink:href="#CMR17-35"
                 transform="translate(45.690477 0) scale(0.996264)"
                 id="use36" />
            </g>
          </g>
        </g>
        <g
           id="ytick_5">
          <g
             id="line2d_5">
            <path
               d="M 53.078626 164.641281  L 446.4 164.641281  "
               clip-path="url(#pbf7a8c3a97)"
               style="fill: none; stroke: #cccccc; stroke-linecap: round"
               id="path36" />
          </g>
          <g
             id="text_12">
            <!-- $\mathdefault{100}$ -->
            <g
               style="fill: #262626"
               transform="translate(27.140224 168.446454) scale(0.11 -0.11)"
               id="g39">
              <use
                 xlink:href="#CMR17-31"
                 transform="scale(0.996264)"
                 id="use37" />
              <use
                 xlink:href="#CMR17-30"
                 transform="translate(45.690477 0) scale(0.996264)"
                 id="use38" />
              <use
                 xlink:href="#CMR17-30"
                 transform="translate(91.380954 0) scale(0.996264)"
                 id="use39" />
            </g>
          </g>
        </g>
        <g
           id="ytick_6">
          <g
             id="line2d_6">
            <path
               d="M 53.078626 132.658593  L 446.4 132.658593  "
               clip-path="url(#pbf7a8c3a97)"
               style="fill: none; stroke: #cccccc; stroke-linecap: round"
               id="path39" />
          </g>
          <g
             id="text_13">
            <!-- $\mathdefault{125}$ -->
            <g
               style="fill: #262626"
               transform="translate(27.140224 136.463766) scale(0.11 -0.11)"
               id="g42">
              <use
                 xlink:href="#CMR17-31"
                 transform="scale(0.996264)"
                 id="use40" />
              <use
                 xlink:href="#CMR17-32"
                 transform="translate(45.690477 0) scale(0.996264)"
                 id="use41" />
              <use
                 xlink:href="#CMR17-35"
                 transform="translate(91.380954 0) scale(0.996264)"
                 id="use42" />
            </g>
          </g>
        </g>
        <g
           id="ytick_7">
          <g
             id="line2d_7">
            <path
               d="M 53.078626 100.675905  L 446.4 100.675905  "
               clip-path="url(#pbf7a8c3a97)"
               style="fill: none; stroke: #cccccc; stroke-linecap: round"
               id="path42" />
          </g>
          <g
             id="text_14">
            <!-- $\mathdefault{150}$ -->
            <g
               style="fill: #262626"
               transform="translate(27.140224 104.481079) scale(0.11 -0.11)"
               id="g45">
              <use
                 xlink:href="#CMR17-31"
                 transform="scale(0.996264)"
                 id="use43" />
              <use
                 xlink:href="#CMR17-35"
                 transform="translate(45.690477 0) scale(0.996264)"
                 id="use44" />
              <use
                 xlink:href="#CMR17-30"
                 transform="translate(91.380954 0) scale(0.996264)"
                 id="use45" />
            </g>
          </g>
        </g>
        <g
           id="ytick_8">
          <g
             id="line2d_8">
            <path
               d="M 53.078626 68.693218  L 446.4 68.693218  "
               clip-path="url(#pbf7a8c3a97)"
               style="fill: none; stroke: #cccccc; stroke-linecap: round"
               id="path45" />
          </g>
          <g
             id="text_15">
            <!-- $\mathdefault{175}$ -->
            <g
               style="fill: #262626"
               transform="translate(27.140224 72.498391) scale(0.11 -0.11)"
               id="g48">
              <use
                 xlink:href="#CMR17-31"
                 transform="scale(0.996264)"
                 id="use46" />
              <use
                 xlink:href="#CMR17-37"
                 transform="translate(45.690477 0) scale(0.996264)"
                 id="use47" />
              <use
                 xlink:href="#CMR17-35"
                 transform="translate(91.380954 0) scale(0.996264)"
                 id="use48" />
            </g>
          </g>
        </g>
        <g
           id="ytick_9">
          <g
             id="line2d_9">
            <path
               d="M 53.078626 36.71053  L 446.4 36.71053  "
               clip-path="url(#pbf7a8c3a97)"
               style="fill: none; stroke: #cccccc; stroke-linecap: round"
               id="path48" />
          </g>
          <g
             id="text_16">
            <!-- $\mathdefault{200}$ -->
            <g
               style="fill: #262626"
               transform="translate(27.140224 40.515703) scale(0.11 -0.11)"
               id="g51">
              <use
                 xlink:href="#CMR17-32"
                 transform="scale(0.996264)"
                 id="use49" />
              <use
                 xlink:href="#CMR17-30"
                 transform="translate(45.690477 0) scale(0.996264)"
                 id="use50" />
              <use
                 xlink:href="#CMR17-30"
                 transform="translate(91.380954 0) scale(0.996264)"
                 id="use51" />
            </g>
          </g>
        </g>
        <g
           id="text_17">
          <!-- Time Spent Recharging (minutes) -->
          <g
             style="fill: #262626"
             transform="translate(19.155168 260.472856) rotate(-90) scale(0.16 -0.16)"
             id="g79">
            <defs
               id="defs51">
              <path
                 id="CMSS17-69"
                 d="M 979 4183  L 442 4183  L 442 3648  L 979 3648  L 979 4183  z M 947 2739  L 474 2739  L 474 0  L 947 0  L 947 2739  z "
                 transform="scale(0.015625)" />
              <path
                 id="CMSS17-6d"
                 d="M 4288 1877  C 4288 2308 4179 2816 3462 2816  C 2982 2816 2694 2516 2566 2331  C 2451 2670 2182 2816 1798 2816  C 1363 2816 1088 2568 941 2389  L 941 2758  L 474 2758  L 474 0  L 960 0  L 960 1559  C 960 1939 1101 2428 1555 2428  C 2138 2428 2138 2016 2138 1829  L 2138 0  L 2624 0  L 2624 1559  C 2624 1939 2765 2428 3219 2428  C 3802 2428 3802 2016 3802 1829  L 3802 0  L 4288 0  L 4288 1877  z "
                 transform="scale(0.015625)" />
              <path
                 id="CMSS17-53"
                 d="M 2797 4169  C 2515 4334 2208 4480 1690 4480  C 864 4480 333 3879 333 3266  C 333 3025 403 2753 653 2475  C 902 2196 1184 2121 1542 2033  C 1690 1994 1939 1924 1984 1906  C 2342 1767 2515 1444 2515 1140  C 2515 742 2202 318 1645 318  C 1453 318 890 318 358 819  L 269 318  C 794 -64 1363 -128 1651 -128  C 2438 -128 3002 488 3002 1186  C 3002 1440 2925 1763 2656 2061  C 2394 2347 2163 2410 1638 2549  C 1338 2626 1146 2677 986 2873  C 877 3013 819 3146 819 3317  C 819 3673 1126 4060 1690 4060  C 1971 4060 2336 4002 2707 3660  L 2797 4169  z "
                 transform="scale(0.015625)" />
              <path
                 id="CMSS17-70"
                 d="M 966 333  C 1178 129 1466 -5 1773 -5  C 2368 -5 2880 603 2880 1412  C 2880 2159 2496 2816 1946 2816  C 1626 2816 1242 2702 954 2472  L 954 2765  L 480 2765  L 480 -1216  L 966 -1216  L 966 333  z M 966 2100  C 1018 2176 1235 2415 1587 2415  C 2035 2415 2394 1960 2394 1412  C 2394 787 1958 384 1530 384  C 1402 384 1267 415 1139 523  C 966 674 966 768 966 857  L 966 2100  z "
                 transform="scale(0.015625)" />
              <path
                 id="CMSS17-6e"
                 d="M 2618 1877  C 2618 2283 2522 2816 1798 2816  C 1389 2816 1120 2606 941 2389  L 941 2758  L 474 2758  L 474 0  L 960 0  L 960 1559  C 960 1964 1114 2428 1549 2428  C 2112 2428 2131 2048 2131 1829  L 2131 0  L 2618 0  L 2618 1877  z "
                 transform="scale(0.015625)" />
              <path
                 id="CMSS17-74"
                 d="M 1069 2368  L 1901 2368  L 1901 2737  L 1069 2737  L 1069 3520  L 614 3520  L 614 2737  L 109 2737  L 109 2368  L 602 2368  L 602 749  C 602 384 685 -64 1107 -64  C 1427 -64 1722 25 2003 172  L 1901 548  C 1747 414 1562 337 1363 337  C 1082 337 1069 696 1069 856  L 1069 2368  z "
                 transform="scale(0.015625)" />
              <path
                 id="CMSS17-52"
                 d="M 2522 2109  L 2534 2115  C 3533 2459 3539 3147 3539 3268  C 3539 3873 2925 4453 2003 4453  L 570 4453  L 570 32  L 1094 32  L 1094 2048  L 2035 2048  L 3168 32  L 3706 32  L 2522 2109  z M 1094 2437  L 1094 4096  L 1933 4096  C 2746 4096 3034 3637 3034 3267  C 3034 2922 2778 2437 1933 2437  L 1094 2437  z "
                 transform="scale(0.015625)" />
              <path
                 id="CMSS17-63"
                 d="M 2464 2541  C 2464 2585 2170 2714 2093 2739  C 1882 2816 1613 2816 1542 2816  C 710 2816 211 2093 211 1363  C 211 595 768 -64 1517 -64  C 1946 -64 2253 76 2502 242  L 2464 664  C 2189 453 1869 337 1523 337  C 1024 337 698 774 698 1369  C 698 1831 909 2414 1549 2414  C 1901 2414 2099 2343 2394 2145  L 2464 2541  z "
                 transform="scale(0.015625)" />
              <path
                 id="CMSS17-61"
                 d="M 2406 1791  C 2406 2392 1978 2808 1402 2808  C 1120 2808 813 2757 461 2553  L 499 2135  C 659 2248 934 2432 1395 2432  C 1722 2432 1920 2180 1920 1782  L 1920 1536  C 896 1536 256 1238 256 726  C 256 461 416 -64 947 -64  C 1043 -64 1562 -64 1933 217  L 1933 -19  L 2406 -19  L 2406 1791  z M 1920 816  C 1920 701 1920 548 1728 434  C 1562 325 1350 325 1261 325  C 941 325 723 511 723 744  C 723 1211 1722 1211 1920 1211  L 1920 816  z "
                 transform="scale(0.015625)" />
              <path
                 id="CMSS17-67"
                 d="M 2848 2808  C 2483 2808 2170 2738 1914 2617  C 1702 2777 1485 2808 1338 2808  C 781 2808 358 2349 358 1814  C 358 1468 550 1207 563 1195  C 448 1035 384 863 384 672  C 384 448 474 289 544 200  C 211 -3 166 -314 166 -435  C 166 -898 749 -1280 1498 -1280  C 2253 -1280 2835 -898 2835 -428  C 2835 448 1856 448 1587 448  L 1069 448  C 973 448 717 448 717 791  C 717 921 774 1004 781 1010  C 877 940 1075 832 1338 832  C 1869 832 2310 1278 2310 1827  C 2310 2132 2170 2355 2112 2432  L 2131 2432  C 2150 2432 2419 2432 2515 2432  C 2720 2432 2739 2429 2918 2419  L 2848 2808  z M 1338 1182  C 1120 1182 813 1315 813 1823  C 813 2375 1165 2464 1331 2464  C 1549 2464 1856 2331 1856 1823  C 1856 1271 1504 1182 1338 1182  z M 1581 -10  C 1734 -10 2381 -10 2381 -442  C 2381 -714 1984 -929 1504 -929  C 1018 -929 621 -720 621 -435  C 621 -403 621 -10 1062 -10  L 1581 -10  z "
                 transform="scale(0.015625)" />
              <path
                 id="CMSS17-28"
                 d="M 1613 4768  C 1267 4417 474 3601 474 1588  C 474 -433 1267 -1243 1613 -1600  L 2003 -1600  C 1216 -784 960 357 960 1581  C 960 2798 1203 3946 2003 4768  L 1613 4768  z "
                 transform="scale(0.015625)" />
              <path
                 id="CMSS17-75"
                 d="M 2618 2739  L 2131 2739  L 2131 972  C 2131 498 1786 306 1421 306  C 998 306 960 447 960 709  L 960 2739  L 474 2739  L 474 678  C 474 179 646 -64 1088 -64  C 1306 -64 1798 -13 2144 306  L 2144 0  L 2618 0  L 2618 2739  z "
                 transform="scale(0.015625)" />
              <path
                 id="CMSS17-29"
                 d="M 723 -1600  C 1069 -1249 1862 -433 1862 1581  C 1862 3601 1069 4411 723 4768  L 333 4768  C 1120 3952 1376 2811 1376 1588  C 1376 370 1133 -778 333 -1600  L 723 -1600  z "
                 transform="scale(0.015625)" />
            </defs>
            <use
               xlink:href="#CMSS17-54"
               transform="scale(0.996264)"
               id="use52" />
            <use
               xlink:href="#CMSS17-69"
               transform="translate(63.819454 0) scale(0.996264)"
               id="use53" />
            <use
               xlink:href="#CMSS17-6d"
               transform="translate(86.000177 0) scale(0.996264)"
               id="use54" />
            <use
               xlink:href="#CMSS17-65"
               transform="translate(160.229431 0) scale(0.996264)"
               id="use55" />
            <use
               xlink:href="#CMSS17-53"
               transform="translate(233.097366 0) scale(0.996264)"
               id="use56" />
            <use
               xlink:href="#CMSS17-70"
               transform="translate(285.145882 0) scale(0.996264)"
               id="use57" />
            <use
               xlink:href="#CMSS17-65"
               transform="translate(335.953264 0) scale(0.996264)"
               id="use58" />
            <use
               xlink:href="#CMSS17-6e"
               transform="translate(377.592086 0) scale(0.996264)"
               id="use59" />
            <use
               xlink:href="#CMSS17-74"
               transform="translate(425.797029 0) scale(0.996264)"
               id="use60" />
            <use
               xlink:href="#CMSS17-52"
               transform="translate(490.857709 0) scale(0.996264)"
               id="use61" />
            <use
               xlink:href="#CMSS17-65"
               transform="translate(551.273864 0) scale(0.996264)"
               id="use62" />
            <use
               xlink:href="#CMSS17-63"
               transform="translate(592.912686 0) scale(0.996264)"
               id="use63" />
            <use
               xlink:href="#CMSS17-68"
               transform="translate(634.551508 0) scale(0.996264)"
               id="use64" />
            <use
               xlink:href="#CMSS17-61"
               transform="translate(682.756451 0) scale(0.996264)"
               id="use65" />
            <use
               xlink:href="#CMSS17-72"
               transform="translate(725.075918 0) scale(0.996264)"
               id="use66" />
            <use
               xlink:href="#CMSS17-67"
               transform="translate(756.98569 0) scale(0.996264)"
               id="use67" />
            <use
               xlink:href="#CMSS17-69"
               transform="translate(803.829314 0) scale(0.996264)"
               id="use68" />
            <use
               xlink:href="#CMSS17-6e"
               transform="translate(826.010037 0) scale(0.996264)"
               id="use69" />
            <use
               xlink:href="#CMSS17-67"
               transform="translate(874.21498 0) scale(0.996264)"
               id="use70" />
            <use
               xlink:href="#CMSS17-28"
               transform="translate(952.287716 0) scale(0.996264)"
               id="use71" />
            <use
               xlink:href="#CMSS17-6d"
               transform="translate(988.72163 0) scale(0.996264)"
               id="use72" />
            <use
               xlink:href="#CMSS17-69"
               transform="translate(1062.950885 0) scale(0.996264)"
               id="use73" />
            <use
               xlink:href="#CMSS17-6e"
               transform="translate(1085.131608 0) scale(0.996264)"
               id="use74" />
            <use
               xlink:href="#CMSS17-75"
               transform="translate(1133.336551 0) scale(0.996264)"
               id="use75" />
            <use
               xlink:href="#CMSS17-74"
               transform="translate(1181.541494 0) scale(0.996264)"
               id="use76" />
            <use
               xlink:href="#CMSS17-65"
               transform="translate(1215.373061 0) scale(0.996264)"
               id="use77" />
            <use
               xlink:href="#CMSS17-73"
               transform="translate(1257.011883 0) scale(0.996264)"
               id="use78" />
            <use
               xlink:href="#CMSS17-29"
               transform="translate(1292.925425 0) scale(0.996264)"
               id="use79" />
          </g>
        </g>
      </g>
      <g
         id="patch_3">
        <path
           d="M 59.633982 292.572031  L 77.114932 292.572031  L 77.114932 26.307085  L 59.633982 26.307085  z "
           clip-path="url(#p391eeb8cf5)"
           style="fill: #3b528b; fill-opacity: 0.7; stroke: #3b528b; stroke-width: 2; stroke-linejoin: miter"
           id="path79" />
      </g>
      <g
         id="patch_4">
        <path
           d="M 77.114932 292.572031  L 94.595882 292.572031  L 94.595882 105.073195  L 77.114932 105.073195  z "
           clip-path="url(#p290b821ec2)"
           style="fill: #21918c; fill-opacity: 0.7; stroke: #21918c; stroke-width: 2; stroke-linejoin: miter"
           id="path80" />
      </g>
      <g
         id="patch_5">
        <path
           d="M 94.595882 292.572031  L 112.076832 292.572031  L 112.076832 73.727215  L 94.595882 73.727215  z "
           clip-path="url(#p36abe47fc1)"
           style="fill: #5ec962; fill-opacity: 0.7; stroke: #5ec962; stroke-width: 2; stroke-linejoin: miter"
           id="path81" />
      </g>
      <g
         id="patch_6">
        <path
           d="M 125.187545 292.572031  L 142.668494 292.572031  L 142.668494 78.620644  L 125.187545 78.620644  z "
           clip-path="url(#p849390dbf3)"
           style="fill: #3b528b; fill-opacity: 0.7; stroke: #3b528b; stroke-width: 2; stroke-linejoin: miter"
           id="path82" />
      </g>
      <g
         id="patch_7">
        <path
           d="M 142.668494 292.572031  L 160.149444 292.572031  L 160.149444 105.053851  L 142.668494 105.053851  z "
           clip-path="url(#pe62076bcc2)"
           style="fill: #21918c; fill-opacity: 0.7; stroke: #21918c; stroke-width: 2; stroke-linejoin: miter"
           id="path83" />
      </g>
      <g
         id="patch_8">
        <path
           d="M 160.149444 292.572031  L 177.630394 292.572031  L 177.630394 74.823233  L 160.149444 74.823233  z "
           clip-path="url(#p2f8b6aafb0)"
           style="fill: #5ec962; fill-opacity: 0.7; stroke: #5ec962; stroke-width: 2; stroke-linejoin: miter"
           id="path84" />
      </g>
      <g
         id="patch_9">
        <path
           d="M 190.741107 292.572031  L 208.222057 292.572031  L 208.222057 103.538201  L 190.741107 103.538201  z "
           clip-path="url(#pdaed6f9531)"
           style="fill: #3b528b; fill-opacity: 0.7; stroke: #3b528b; stroke-width: 2; stroke-linejoin: miter"
           id="path85" />
      </g>
      <g
         id="patch_10">
        <path
           d="M 208.222057 292.572031  L 225.703007 292.572031  L 225.703007 104.971684  L 208.222057 104.971684  z "
           clip-path="url(#p945100a71d)"
           style="fill: #21918c; fill-opacity: 0.7; stroke: #21918c; stroke-width: 2; stroke-linejoin: miter"
           id="path86" />
      </g>
      <g
         id="patch_11">
        <path
           d="M 225.703007 292.572031  L 243.183957 292.572031  L 243.183957 75.848481  L 225.703007 75.848481  z "
           clip-path="url(#pdb701f448d)"
           style="fill: #5ec962; fill-opacity: 0.7; stroke: #5ec962; stroke-width: 2; stroke-linejoin: miter"
           id="path87" />
      </g>
      <g
         id="patch_12">
        <path
           d="M 256.294669 292.572031  L 273.775619 292.572031  L 273.775619 106.242637  L 256.294669 106.242637  z "
           clip-path="url(#p0cae3cca3c)"
           style="fill: #3b528b; fill-opacity: 0.7; stroke: #3b528b; stroke-width: 2; stroke-linejoin: miter"
           id="path88" />
      </g>
      <g
         id="patch_13">
        <path
           d="M 273.775619 292.572031  L 291.256569 292.572031  L 291.256569 105.213493  L 273.775619 105.213493  z "
           clip-path="url(#p72f56fb7e4)"
           style="fill: #21918c; fill-opacity: 0.7; stroke: #21918c; stroke-width: 2; stroke-linejoin: miter"
           id="path89" />
      </g>
      <g
         id="patch_14">
        <path
           d="M 291.256569 292.572031  L 308.737519 292.572031  L 308.737519 76.37922  L 291.256569 76.37922  z "
           clip-path="url(#p93a8b86a88)"
           style="fill: #5ec962; fill-opacity: 0.7; stroke: #5ec962; stroke-width: 2; stroke-linejoin: miter"
           id="path90" />
      </g>
      <g
         id="patch_15">
        <path
           d="M 321.848232 292.572031  L 339.329182 292.572031  L 339.329182 106.242637  L 321.848232 106.242637  z "
           clip-path="url(#p9dc401341d)"
           style="fill: #3b528b; fill-opacity: 0.7; stroke: #3b528b; stroke-width: 2; stroke-linejoin: miter"
           id="path91" />
      </g>
      <g
         id="patch_16">
        <path
           d="M 339.329182 292.572031  L 356.810131 292.572031  L 356.810131 105.243266  L 339.329182 105.243266  z "
           clip-path="url(#peca639511b)"
           style="fill: #21918c; fill-opacity: 0.7; stroke: #21918c; stroke-width: 2; stroke-linejoin: miter"
           id="path92" />
      </g>
      <g
         id="patch_17">
        <path
           d="M 356.810131 292.572031  L 374.291081 292.572031  L 374.291081 78.923142  L 356.810131 78.923142  z "
           clip-path="url(#p0e4f12b7f0)"
           style="fill: #5ec962; fill-opacity: 0.7; stroke: #5ec962; stroke-width: 2; stroke-linejoin: miter"
           id="path93" />
      </g>
      <g
         id="patch_18">
        <path
           d="M 387.401794 292.572031  L 404.882744 292.572031  L 404.882744 106.714566  L 387.401794 106.714566  z "
           clip-path="url(#p61e1e96a54)"
           style="fill: #3b528b; fill-opacity: 0.7; stroke: #3b528b; stroke-width: 2; stroke-linejoin: miter"
           id="path94" />
      </g>
      <g
         id="patch_19">
        <path
           d="M 404.882744 292.572031  L 422.363694 292.572031  L 422.363694 171.537543  L 404.882744 171.537543  z "
           clip-path="url(#p83a0b867d9)"
           style="fill: #21918c; fill-opacity: 0.7; stroke: #21918c; stroke-width: 2; stroke-linejoin: miter"
           id="path95" />
      </g>
      <g
         id="patch_20">
        <path
           d="M 422.363694 292.572031  L 439.844644 292.572031  L 439.844644 80.395257  L 422.363694 80.395257  z "
           clip-path="url(#pbff0ea2f04)"
           style="fill: #5ec962; fill-opacity: 0.7; stroke: #5ec962; stroke-width: 2; stroke-linejoin: miter"
           id="path96" />
      </g>
      <g
         id="LineCollection_1">
        <path
           d="M 68.374457 31.825025  L 68.374457 20.789144  "
           clip-path="url(#pbf7a8c3a97)"
           style="fill: none; stroke: #3b528b; stroke-width: 1.5; stroke-linecap: square"
           id="path97" />
        <path
           d="M 133.928019 82.739028  L 133.928019 74.50226  "
           clip-path="url(#pbf7a8c3a97)"
           style="fill: none; stroke: #3b528b; stroke-width: 1.5; stroke-linecap: square"
           id="path98" />
        <path
           d="M 199.481582 106.067837  L 199.481582 101.008564  "
           clip-path="url(#pbf7a8c3a97)"
           style="fill: none; stroke: #3b528b; stroke-width: 1.5; stroke-linecap: square"
           id="path99" />
        <path
           d="M 265.035144 108.57294  L 265.035144 103.912335  "
           clip-path="url(#pbf7a8c3a97)"
           style="fill: none; stroke: #3b528b; stroke-width: 1.5; stroke-linecap: square"
           id="path100" />
        <path
           d="M 330.588707 108.57294  L 330.588707 103.912335  "
           clip-path="url(#pbf7a8c3a97)"
           style="fill: none; stroke: #3b528b; stroke-width: 1.5; stroke-linecap: square"
           id="path101" />
        <path
           d="M 396.142269 108.888401  L 396.142269 104.540732  "
           clip-path="url(#pbf7a8c3a97)"
           style="fill: none; stroke: #3b528b; stroke-width: 1.5; stroke-linecap: square"
           id="path102" />
        <path
           d="M 85.855407 107.274501  L 85.855407 102.871889  "
           clip-path="url(#pbf7a8c3a97)"
           style="fill: none; stroke: #21918c; stroke-width: 1.5; stroke-linecap: square"
           id="path103" />
        <path
           d="M 151.408969 107.249177  L 151.408969 102.858524  "
           clip-path="url(#pbf7a8c3a97)"
           style="fill: none; stroke: #21918c; stroke-width: 1.5; stroke-linecap: square"
           id="path104" />
        <path
           d="M 216.962532 107.151752  L 216.962532 102.791616  "
           clip-path="url(#pbf7a8c3a97)"
           style="fill: none; stroke: #21918c; stroke-width: 1.5; stroke-linecap: square"
           id="path105" />
        <path
           d="M 282.516094 107.410644  L 282.516094 103.016341  "
           clip-path="url(#pbf7a8c3a97)"
           style="fill: none; stroke: #21918c; stroke-width: 1.5; stroke-linecap: square"
           id="path106" />
        <path
           d="M 348.069656 107.394435  L 348.069656 103.092096  "
           clip-path="url(#pbf7a8c3a97)"
           style="fill: none; stroke: #21918c; stroke-width: 1.5; stroke-linecap: square"
           id="path107" />
        <path
           d="M 413.623219 178.098088  L 413.623219 164.976998  "
           clip-path="url(#pbf7a8c3a97)"
           style="fill: none; stroke: #21918c; stroke-width: 1.5; stroke-linecap: square"
           id="path108" />
        <path
           d="M 103.336357 78.963665  L 103.336357 68.490765  "
           clip-path="url(#pbf7a8c3a97)"
           style="fill: none; stroke: #5ec962; stroke-width: 1.5; stroke-linecap: square"
           id="path109" />
        <path
           d="M 168.889919 79.573203  L 168.889919 70.073262  "
           clip-path="url(#pbf7a8c3a97)"
           style="fill: none; stroke: #5ec962; stroke-width: 1.5; stroke-linecap: square"
           id="path110" />
        <path
           d="M 234.443482 80.809426  L 234.443482 70.887536  "
           clip-path="url(#pbf7a8c3a97)"
           style="fill: none; stroke: #5ec962; stroke-width: 1.5; stroke-linecap: square"
           id="path111" />
        <path
           d="M 299.997044 81.900418  L 299.997044 70.858021  "
           clip-path="url(#pbf7a8c3a97)"
           style="fill: none; stroke: #5ec962; stroke-width: 1.5; stroke-linecap: square"
           id="path112" />
        <path
           d="M 365.550606 83.481499  L 365.550606 74.364784  "
           clip-path="url(#pbf7a8c3a97)"
           style="fill: none; stroke: #5ec962; stroke-width: 1.5; stroke-linecap: square"
           id="path113" />
        <path
           d="M 431.104169 84.738703  L 431.104169 76.05181  "
           clip-path="url(#pbf7a8c3a97)"
           style="fill: none; stroke: #5ec962; stroke-width: 1.5; stroke-linecap: square"
           id="path114" />
      </g>
      <g
         id="patch_21">
        <path
           d="M 53.078626 292.572031  L 53.078626 7.2  "
           style="fill: none; stroke: #cccccc; stroke-width: 1.25; stroke-linejoin: miter; stroke-linecap: square"
           id="path115" />
      </g>
      <g
         id="patch_22">
        <path
           d="M 446.4 292.572031  L 446.4 7.2  "
           style="fill: none; stroke: #cccccc; stroke-width: 1.25; stroke-linejoin: miter; stroke-linecap: square"
           id="path116" />
      </g>
      <g
         id="patch_23">
        <path
           d="M 53.078626 292.572031  L 446.4 292.572031  "
           style="fill: none; stroke: #cccccc; stroke-width: 1.25; stroke-linejoin: miter; stroke-linecap: square"
           id="path117" />
      </g>
      <g
         id="patch_24">
        <path
           d="M 53.078626 7.2  L 446.4 7.2  "
           style="fill: none; stroke: #cccccc; stroke-width: 1.25; stroke-linejoin: miter; stroke-linecap: square"
           id="path118" />
      </g>
    </g>
    <g
       id="legend_1">
      <g
         id="patch_25">
        <path
           d="M 462.784 193.482602  L 589.049824 193.482602  Q 592.249824 193.482602 592.249824 190.282602  L 592.249824 106.357398  Q 592.249824 103.157398 589.049824 103.157398  L 462.784 103.157398  Q 459.584 103.157398 459.584 106.357398  L 459.584 190.282602  Q 459.584 193.482602 462.784 193.482602  z "
           style="fill: #ffffff; opacity: 0.8; stroke: #cccccc; stroke-linejoin: miter"
           id="path119" />
      </g>
      <g
         id="text_18">
        <!-- SwapPolicy -->
        <g
           transform="translate(498.526918 117.859578) scale(0.12 -0.12)"
           id="g128">
          <defs
             id="defs119">
            <path
               id="CMSS17-77"
               d="M 4013 2752  L 3526 2752  L 3187 1601  C 3117 1358 2918 685 2893 371  L 2886 371  C 2874 564 2765 1024 2586 1633  L 2259 2752  L 1818 2752  L 1498 1658  C 1338 1101 1216 627 1203 371  L 1197 371  C 1171 749 909 1633 870 1773  L 582 2752  L 83 2752  L 915 0  L 1402 0  C 1734 1096 1990 1943 2010 2370  C 2022 2160 2131 1707 2195 1484  L 2618 0  L 3181 0  L 4013 2752  z "
               transform="scale(0.015625)" />
            <path
               id="CMSS17-50"
               d="M 2106 1856  C 2874 1856 3501 2453 3501 3158  C 3501 3850 2899 4453 2067 4453  L 570 4453  L 570 0  L 1107 0  L 1107 1856  L 2106 1856  z M 1926 4096  C 2669 4096 2995 3627 2995 3157  C 2995 2720 2694 2226 1926 2226  L 1094 2226  L 1094 4096  L 1926 4096  z "
               transform="scale(0.015625)" />
            <path
               id="CMSS17-79"
               d="M 2675 2752  L 2176 2752  C 1632 1294 1446 702 1434 383  L 1427 383  C 1408 696 1126 1460 902 2007  L 602 2752  L 83 2752  L 1216 13  C 1146 -178 1043 -465 1011 -529  C 870 -885 774 -885 672 -885  C 646 -885 442 -885 211 -809  L 250 -1229  C 410 -1261 570 -1280 685 -1280  C 845 -1280 1165 -1280 1459 -497  L 2675 2752  z "
               transform="scale(0.015625)" />
          </defs>
          <use
             xlink:href="#CMSS17-53"
             transform="scale(0.996264)"
             id="use119" />
          <use
             xlink:href="#CMSS17-77"
             transform="translate(52.048516 0) scale(0.996264)"
             id="use120" />
          <use
             xlink:href="#CMSS17-61"
             transform="translate(113.265607 0) scale(0.996264)"
             id="use121" />
          <use
             xlink:href="#CMSS17-70"
             transform="translate(158.187528 0) scale(0.996264)"
             id="use122" />
          <use
             xlink:href="#CMSS17-50"
             transform="translate(206.392471 0) scale(0.996264)"
             id="use123" />
          <use
             xlink:href="#CMSS17-6f"
             transform="translate(263.525603 0) scale(0.996264)"
             id="use124" />
          <use
             xlink:href="#CMSS17-6c"
             transform="translate(310.369227 0) scale(0.996264)"
             id="use125" />
          <use
             xlink:href="#CMSS17-69"
             transform="translate(332.54995 0) scale(0.996264)"
             id="use126" />
          <use
             xlink:href="#CMSS17-63"
             transform="translate(354.730673 0) scale(0.996264)"
             id="use127" />
          <use
             xlink:href="#CMSS17-79"
             transform="translate(396.369495 0) scale(0.996264)"
             id="use128" />
        </g>
      </g>
      <g
         id="patch_26">
        <path
           d="M 465.984 139.384173  L 497.984 139.384173  L 497.984 128.184173  L 465.984 128.184173  z "
           style="fill: #3b528b; fill-opacity: 0.7; stroke: #3b528b; stroke-linejoin: miter"
           id="path128" />
      </g>
      <g
         id="line2d_10">
        <path
           d="M 465.984 133.784173  L 481.984 133.784173  L 497.984 133.784173  "
           style="fill: none; stroke: #3b528b; stroke-width: 1.5; stroke-linecap: square"
           id="path129" />
      </g>
      <g
         id="text_19">
        <!-- smartphone -->
        <g
           transform="translate(510.784 139.384173) scale(0.16 -0.16)"
           id="g138">
          <use
             xlink:href="#CMSS17-73"
             transform="scale(0.996264)"
             id="use129" />
          <use
             xlink:href="#CMSS17-6d"
             transform="translate(35.913542 0) scale(0.996264)"
             id="use130" />
          <use
             xlink:href="#CMSS17-61"
             transform="translate(110.142796 0) scale(0.996264)"
             id="use131" />
          <use
             xlink:href="#CMSS17-72"
             transform="translate(152.462263 0) scale(0.996264)"
             id="use132" />
          <use
             xlink:href="#CMSS17-74"
             transform="translate(184.372036 0) scale(0.996264)"
             id="use133" />
          <use
             xlink:href="#CMSS17-70"
             transform="translate(218.203602 0) scale(0.996264)"
             id="use134" />
          <use
             xlink:href="#CMSS17-68"
             transform="translate(266.408545 0) scale(0.996264)"
             id="use135" />
          <use
             xlink:href="#CMSS17-6f"
             transform="translate(314.613489 0) scale(0.996264)"
             id="use136" />
          <use
             xlink:href="#CMSS17-6e"
             transform="translate(361.457112 0) scale(0.996264)"
             id="use137" />
          <use
             xlink:href="#CMSS17-65"
             transform="translate(409.662055 0) scale(0.996264)"
             id="use138" />
        </g>
      </g>
      <g
         id="patch_27">
        <path
           d="M 465.984 161.68365  L 497.984 161.68365  L 497.984 150.48365  L 465.984 150.48365  z "
           style="fill: #21918c; fill-opacity: 0.7; stroke: #21918c; stroke-linejoin: miter"
           id="path138" />
      </g>
      <g
         id="line2d_11">
        <path
           d="M 465.984 156.08365  L 481.984 156.08365  L 497.984 156.08365  "
           style="fill: none; stroke: #21918c; stroke-width: 1.5; stroke-linecap: square"
           id="path139" />
      </g>
      <g
         id="text_20">
        <!-- hybrid -->
        <g
           transform="translate(510.784 161.68365) scale(0.16 -0.16)"
           id="g144">
          <defs
             id="defs139">
            <path
               id="CMSS17-62"
               d="M 954 4416  L 480 4416  L 480 -13  L 966 -13  L 966 274  C 1210 38 1504 -64 1766 -64  C 2381 -64 2880 549 2880 1352  C 2880 2086 2496 2756 1926 2756  C 1523 2756 1165 2591 954 2419  L 954 4416  z M 966 2046  C 1107 2222 1306 2368 1587 2368  C 1965 2368 2394 2097 2394 1352  C 2394 558 1882 325 1530 325  C 1402 325 1267 356 1139 464  C 966 615 966 709 966 797  L 966 2046  z "
               transform="scale(0.015625)" />
          </defs>
          <use
             xlink:href="#CMSS17-68"
             transform="scale(0.996264)"
             id="use139" />
          <use
             xlink:href="#CMSS17-79"
             transform="translate(48.204943 0) scale(0.996264)"
             id="use140" />
          <use
             xlink:href="#CMSS17-62"
             transform="translate(91.205085 0) scale(0.996264)"
             id="use141" />
          <use
             xlink:href="#CMSS17-72"
             transform="translate(136.807574 0) scale(0.996264)"
             id="use142" />
          <use
             xlink:href="#CMSS17-69"
             transform="translate(168.717347 0) scale(0.996264)"
             id="use143" />
          <use
             xlink:href="#CMSS17-64"
             transform="translate(190.89807 0) scale(0.996264)"
             id="use144" />
        </g>
      </g>
      <g
         id="patch_28">
        <path
           d="M 465.984 183.983126  L 497.984 183.983126  L 497.984 172.783126  L 465.984 172.783126  z "
           style="fill: #5ec962; fill-opacity: 0.7; stroke: #5ec962; stroke-linejoin: miter"
           id="path144" />
      </g>
      <g
         id="line2d_12">
        <path
           d="M 465.984 178.383126  L 481.984 178.383126  L 497.984 178.383126  "
           style="fill: none; stroke: #5ec962; stroke-width: 1.5; stroke-linecap: square"
           id="path145" />
      </g>
      <g
         id="text_21">
        <!-- wearable -->
        <g
           transform="translate(510.784 183.983126) scale(0.16 -0.16)"
           id="g152">
          <use
             xlink:href="#CMSS17-77"
             transform="scale(0.996264)"
             id="use145" />
          <use
             xlink:href="#CMSS17-65"
             transform="translate(61.217091 0) scale(0.996264)"
             id="use146" />
          <use
             xlink:href="#CMSS17-61"
             transform="translate(102.855913 0) scale(0.996264)"
             id="use147" />
          <use
             xlink:href="#CMSS17-72"
             transform="translate(145.17538 0) scale(0.996264)"
             id="use148" />
          <use
             xlink:href="#CMSS17-61"
             transform="translate(177.085152 0) scale(0.996264)"
             id="use149" />
          <use
             xlink:href="#CMSS17-62"
             transform="translate(222.007073 0) scale(0.996264)"
             id="use150" />
          <use
             xlink:href="#CMSS17-6c"
             transform="translate(270.212016 0) scale(0.996264)"
             id="use151" />
          <use
             xlink:href="#CMSS17-65"
             transform="translate(292.392739 0) scale(0.996264)"
             id="use152" />
        </g>
      </g>
    </g>
  </g>
  <defs
     id="defs169">
    <clipPath
       id="pbf7a8c3a97">
      <rect
         x="53.078626"
         y="7.2"
         width="393.321374"
         height="285.372031"
         id="rect152" />
    </clipPath>
    <clipPath
       id="p391eeb8cf5">
      <path
         d="M 59.633982 292.572031  L 77.114932 292.572031  L 77.114932 26.307085  L 59.633982 26.307085  z "
         id="path152" />
    </clipPath>
    <clipPath
       id="p290b821ec2">
      <path
         d="M 77.114932 292.572031  L 94.595882 292.572031  L 94.595882 105.073195  L 77.114932 105.073195  z "
         id="path153" />
    </clipPath>
    <clipPath
       id="p36abe47fc1">
      <path
         d="M 94.595882 292.572031  L 112.076832 292.572031  L 112.076832 73.727215  L 94.595882 73.727215  z "
         id="path154" />
    </clipPath>
    <clipPath
       id="p849390dbf3">
      <path
         d="M 125.187545 292.572031  L 142.668494 292.572031  L 142.668494 78.620644  L 125.187545 78.620644  z "
         id="path155" />
    </clipPath>
    <clipPath
       id="pe62076bcc2">
      <path
         d="M 142.668494 292.572031  L 160.149444 292.572031  L 160.149444 105.053851  L 142.668494 105.053851  z "
         id="path156" />
    </clipPath>
    <clipPath
       id="p2f8b6aafb0">
      <path
         d="M 160.149444 292.572031  L 177.630394 292.572031  L 177.630394 74.823233  L 160.149444 74.823233  z "
         id="path157" />
    </clipPath>
    <clipPath
       id="pdaed6f9531">
      <path
         d="M 190.741107 292.572031  L 208.222057 292.572031  L 208.222057 103.538201  L 190.741107 103.538201  z "
         id="path158" />
    </clipPath>
    <clipPath
       id="p945100a71d">
      <path
         d="M 208.222057 292.572031  L 225.703007 292.572031  L 225.703007 104.971684  L 208.222057 104.971684  z "
         id="path159" />
    </clipPath>
    <clipPath
       id="pdb701f448d">
      <path
         d="M 225.703007 292.572031  L 243.183957 292.572031  L 243.183957 75.848481  L 225.703007 75.848481  z "
         id="path160" />
    </clipPath>
    <clipPath
       id="p0cae3cca3c">
      <path
         d="M 256.294669 292.572031  L 273.775619 292.572031  L 273.775619 106.242637  L 256.294669 106.242637  z "
         id="path161" />
    </clipPath>
    <clipPath
       id="p72f56fb7e4">
      <path
         d="M 273.775619 292.572031  L 291.256569 292.572031  L 291.256569 105.213493  L 273.775619 105.213493  z "
         id="path162" />
    </clipPath>
    <clipPath
       id="p93a8b86a88">
      <path
         d="M 291.256569 292.572031  L 308.737519 292.572031  L 308.737519 76.37922  L 291.256569 76.37922  z "
         id="path163" />
    </clipPath>
    <clipPath
       id="p9dc401341d">
      <path
         d="M 321.848232 292.572031  L 339.329182 292.572031  L 339.329182 106.242637  L 321.848232 106.242637  z "
         id="path164" />
    </clipPath>
    <clipPath
       id="peca639511b">
      <path
         d="M 339.329182 292.572031  L 356.810131 292.572031  L 356.810131 105.243266  L 339.329182 105.243266  z "
         id="path165" />
    </clipPath>
    <clipPath
       id="p0e4f12b7f0">
      <path
         d="M 356.810131 292.572031  L 374.291081 292.572031  L 374.291081 78.923142  L 356.810131 78.923142  z "
         id="path166" />
    </clipPath>
    <clipPath
       id="p61e1e96a54">
      <path
         d="M 387.401794 292.572031  L 404.882744 292.572031  L 404.882744 106.714566  L 387.401794 106.714566  z "
         id="path167" />
    </clipPath>
    <clipPath
       id="p83a0b867d9">
      <path
         d="M 404.882744 292.572031  L 422.363694 292.572031  L 422.363694 171.537543  L 404.882744 171.537543  z "
         id="path168" />
    </clipPath>
    <clipPath
       id="pbff0ea2f04">
      <path
         d="M 422.363694 292.572031  L 439.844644 292.572031  L 439.844644 80.395257  L 422.363694 80.395257  z "
         id="path169" />
    </clipPath>
  </defs>
</svg>
