<?xml version="1.0" encoding="UTF-8"?>
<!DOCTYPE svg PUBLIC "-//W3C//DTD SVG 1.1//EN" "http://www.w3.org/Graphics/SVG/1.1/DTD/svg11.dtd">
<svg xmlns="http://www.w3.org/2000/svg" xmlns:xlink="http://www.w3.org/1999/xlink" version="1.1" width="821px" height="208px" viewBox="-0.5 -0.5 821 208"><defs><linearGradient x1="100%" y1="0%" x2="0%" y2="0%" id="mx-gradient-23373b-1-ffffff-1-e-0"><stop offset="0%" style="stop-color: rgb(255, 255, 255); stop-opacity: 1;"/><stop offset="100%" style="stop-color: rgb(35, 55, 59); stop-opacity: 1;"/></linearGradient></defs><g><g><rect x="0" y="162" width="820" height="45" fill="url(#mx-gradient-23373b-1-ffffff-1-e-0)" stroke="rgb(0, 0, 0)" pointer-events="all"/></g><g><path d="M 77 69.5 C 53 69.5 47 87 66.2 90.5 C 47 98.2 68.6 115 84.2 108 C 95 122 131 122 143 108 C 167 108 167 94 152 87 C 167 73 143 59 122 66 C 107 55.5 83 55.5 77 69.5 Z" fill="rgb(255, 255, 255)" stroke="rgb(0, 0, 0)" stroke-width="3" stroke-miterlimit="10" pointer-events="all"/></g><g><rect x="581" y="59.5" width="30" height="55" fill="rgb(255, 255, 255)" stroke="#23373b" stroke-width="3" pointer-events="all"/><path d="M 581 63.9 L 611 63.9 M 581 106.25 L 611 106.25 M 594.5 110.38 L 597.5 110.38" fill="none" stroke="#23373b" stroke-width="3" stroke-miterlimit="10" pointer-events="all"/></g><g><rect x="426" y="57" width="60" height="60" fill="none" stroke="none" pointer-events="all"/><path d="M 428.8 104.4 C 428 104.32 427.26 103.89 426.75 103.22 C 426.24 102.55 426 101.68 426.08 100.81 L 426.08 60.34 C 426.21 58.67 427.39 57.32 428.92 57.08 L 482.56 57.08 C 484.33 57 485.84 58.44 486 60.34 L 485.94 101.46 C 485.59 103.2 484.2 104.46 482.56 104.53 L 463.76 104.53 L 462.91 108.25 C 462.72 109.11 462.85 110.02 463.28 110.77 C 463.71 111.52 464.41 112.05 465.2 112.23 C 467.03 112.91 468.95 113.2 470.87 113.08 L 474.37 113.08 L 474.37 117 L 435.25 117 L 435.25 113.08 L 439.41 113.08 C 441.58 113.1 443.74 112.7 445.8 111.91 C 447.41 111.49 448.4 109.74 448.03 107.99 L 447.48 104.53 Z M 430.54 99.7 L 481.36 99.7 L 481.36 62.1 L 430.54 62.1 Z" fill="#23373b" stroke="none" pointer-events="all"/></g><g><rect x="244" y="60.3" width="102.8" height="56.7" fill="none" stroke="none" pointer-events="all"/><path d="M 346.8 117 L 318.75 117 C 316.67 117 314.61 114.59 314.61 111.91 L 314.61 60.3 L 342.24 60.3 C 344.5 60.3 346.8 62.38 346.8 65.1 L 346.8 117 Z" fill="#23373b" stroke="none" pointer-events="all"/><path d="M 311.5 117 L 283.44 117 C 281.37 117 279.3 114.59 279.3 111.91 L 279.3 60.3 L 306.93 60.3 C 309.2 60.3 311.5 62.38 311.5 65.1 L 311.5 117 Z" fill="#23373b" stroke="none" pointer-events="all"/><path d="M 276.19 117 L 248.14 117 C 246.06 117 244 114.59 244 111.91 L 244 60.3 L 271.63 60.3 C 273.9 60.3 276.19 62.38 276.19 65.1 L 276.19 117 Z" fill="#23373b" stroke="none" pointer-events="all"/><path d="M 272.41 91.63 L 272.41 86.48 C 272.41 85.65 271.83 83.5 270 83.5 L 247.09 83.5 L 247.09 88.86 C 247.09 90.19 248.13 91.63 249.59 91.63 L 272.41 91.63 Z M 271.07 90.12 L 263.67 90.12 C 262.46 90.12 261.06 88.9 261.06 87.19 L 261.06 85.47 L 268.73 85.47 C 269.76 85.47 271.07 86.8 271.07 88.24 L 271.07 90.12 Z M 272.41 81.99 L 272.41 76.84 C 272.41 76.01 271.83 73.86 270 73.86 L 247.09 73.86 L 247.09 79.22 C 247.09 80.55 248.13 81.99 249.59 81.99 L 272.41 81.99 Z M 271.07 80.48 L 263.67 80.48 C 262.46 80.48 261.06 79.26 261.06 77.55 L 261.06 75.83 L 268.73 75.83 C 269.76 75.83 271.07 77.17 271.07 78.6 L 271.07 80.48 Z M 272.41 72.44 L 272.41 67.28 C 272.41 66.46 271.83 64.31 270 64.31 L 247.09 64.31 L 247.09 69.66 C 247.09 70.99 248.13 72.44 249.59 72.44 L 272.41 72.44 Z M 271.07 70.92 L 263.67 70.92 C 262.46 70.92 261.06 69.7 261.06 68 L 261.06 66.27 L 268.73 66.27 C 269.76 66.27 271.07 67.61 271.07 69.04 L 271.07 70.92 Z M 307.71 91.63 L 307.71 86.48 C 307.71 85.65 307.13 83.5 305.31 83.5 L 282.39 83.5 L 282.39 88.86 C 282.39 90.19 283.43 91.63 284.9 91.63 L 307.71 91.63 Z M 306.37 90.12 L 298.97 90.12 C 297.76 90.12 296.36 88.9 296.36 87.19 L 296.36 85.47 L 304.04 85.47 C 305.06 85.47 306.37 86.8 306.37 88.24 L 306.37 90.12 Z M 307.71 81.99 L 307.71 76.84 C 307.71 76.01 307.13 73.86 305.31 73.86 L 282.39 73.86 L 282.39 79.22 C 282.39 80.55 283.43 81.99 284.9 81.99 L 307.71 81.99 Z M 306.37 80.48 L 298.97 80.48 C 297.76 80.48 296.36 79.26 296.36 77.55 L 296.36 75.83 L 304.04 75.83 C 305.06 75.83 306.37 77.17 306.37 78.6 L 306.37 80.48 Z M 307.71 72.44 L 307.71 67.28 C 307.71 66.46 307.13 64.31 305.31 64.31 L 282.39 64.31 L 282.39 69.66 C 282.39 70.99 283.43 72.44 284.9 72.44 L 307.71 72.44 Z M 306.37 70.92 L 298.97 70.92 C 297.76 70.92 296.36 69.7 296.36 68 L 296.36 66.27 L 304.04 66.27 C 305.06 66.27 306.37 67.61 306.37 69.04 L 306.37 70.92 Z M 343.02 91.63 L 343.02 86.48 C 343.02 85.65 342.43 83.5 340.61 83.5 L 317.69 83.5 L 317.69 88.86 C 317.69 90.19 318.74 91.63 320.2 91.63 L 343.02 91.63 Z M 341.68 90.12 L 334.27 90.12 C 333.06 90.12 331.66 88.9 331.66 87.19 L 331.66 85.47 L 339.34 85.47 C 340.36 85.47 341.68 86.8 341.68 88.24 L 341.68 90.12 Z M 343.02 81.99 L 343.02 76.84 C 343.02 76.01 342.43 73.86 340.61 73.86 L 317.69 73.86 L 317.69 79.22 C 317.69 80.55 318.74 81.99 320.2 81.99 L 343.02 81.99 Z M 341.68 80.48 L 334.27 80.48 C 333.06 80.48 331.66 79.26 331.66 77.55 L 331.66 75.83 L 339.34 75.83 C 340.36 75.83 341.68 77.17 341.68 78.6 L 341.68 80.48 Z M 343.02 72.44 L 343.02 67.28 C 343.02 66.46 342.43 64.31 340.61 64.31 L 317.69 64.31 L 317.69 69.66 C 317.69 70.99 318.74 72.44 320.2 72.44 L 343.02 72.44 Z M 341.68 70.92 L 334.27 70.92 C 333.06 70.92 331.66 69.7 331.66 68 L 331.66 66.27 L 339.34 66.27 C 340.36 66.27 341.68 67.61 341.68 69.04 L 341.68 70.92 Z" fill="#ffffff" stroke="none" pointer-events="all"/></g><g><rect x="711" y="58" width="58" height="58" fill="none" stroke="none" pointer-events="all"/><path d="M 740 98.83 C 739.53 98.83 739.09 98.58 738.86 98.18 C 738.62 97.77 738.62 97.27 738.86 96.86 C 739.09 96.45 739.53 96.2 740 96.2 C 740.47 96.2 740.91 96.45 741.14 96.86 C 741.38 97.27 741.38 97.77 741.14 98.18 C 740.91 98.58 740.47 98.83 740 98.83 Z M 741.32 93.8 L 741.32 79.09 L 738.68 79.09 L 738.68 93.8 C 737.15 94.35 736.05 95.8 736.05 97.52 C 736.05 99.7 737.82 101.47 740 101.47 C 742.18 101.47 743.95 99.7 743.95 97.52 C 743.95 95.8 742.85 94.35 741.32 93.8 Z M 743.32 101.61 C 742.07 102.63 740.48 103.01 738.86 102.67 C 736.82 102.25 735.2 100.58 734.82 98.51 C 734.43 96.54 735.22 94.52 736.84 93.32 L 737.36 92.93 L 737.36 73.82 C 737.36 72.36 738.55 71.18 740 71.18 C 741.45 71.18 742.64 72.36 742.64 73.82 L 742.64 92.93 L 743.16 93.32 C 744.5 94.34 745.27 95.87 745.27 97.52 C 745.27 99.11 744.56 100.6 743.32 101.61 Z M 745.27 91.65 L 745.27 73.82 C 745.27 70.91 742.91 68.55 740 68.55 C 737.09 68.55 734.73 70.91 734.73 73.82 L 734.73 91.65 C 732.68 93.49 731.72 96.24 732.23 98.99 C 732.8 102.1 735.25 104.61 738.32 105.25 C 738.88 105.37 739.43 105.42 739.99 105.42 C 741.81 105.43 743.58 104.8 744.99 103.65 C 746.84 102.15 747.91 99.9 747.91 97.52 C 747.91 95.27 746.95 93.14 745.27 91.65 Z M 747.91 90.95 L 753.18 90.95 L 753.18 88.32 L 747.91 88.32 Z M 747.91 85.68 L 754.5 85.68 L 754.5 83.05 L 747.91 83.05 Z M 747.91 80.41 L 753.18 80.41 L 753.18 77.77 L 747.91 77.77 Z M 747.91 75.14 L 754.5 75.14 L 754.5 72.5 L 747.91 72.5 Z M 759.77 105.28 C 759.77 106.1 759.1 106.77 758.28 106.77 L 721.72 106.77 C 720.9 106.77 720.23 106.1 720.23 105.28 L 720.23 68.72 C 720.23 67.9 720.9 67.23 721.72 67.23 L 758.28 67.23 C 759.1 67.23 759.77 67.9 759.77 68.72 Z M 769 75.14 L 769 72.5 L 762.41 72.5 L 762.41 68.72 C 762.41 66.44 760.56 64.59 758.28 64.59 L 754.5 64.59 L 754.5 58 L 751.86 58 L 751.86 64.59 L 747.91 64.59 L 747.91 58 L 745.27 58 L 745.27 64.59 L 741.32 64.59 L 741.32 58 L 738.68 58 L 738.68 64.59 L 734.73 64.59 L 734.73 58 L 732.09 58 L 732.09 64.59 L 728.14 64.59 L 728.14 58 L 725.5 58 L 725.5 64.59 L 721.72 64.59 C 719.44 64.59 717.59 66.44 717.59 68.72 L 717.59 72.5 L 711 72.5 L 711 75.14 L 717.59 75.14 L 717.59 79.09 L 711 79.09 L 711 81.73 L 717.59 81.73 L 717.59 85.68 L 711 85.68 L 711 88.32 L 717.59 88.32 L 717.59 92.27 L 711 92.27 L 711 94.91 L 717.59 94.91 L 717.59 98.86 L 711 98.86 L 711 101.5 L 717.59 101.5 L 717.59 105.28 C 717.6 107.56 719.44 109.41 721.72 109.41 L 725.5 109.41 L 725.5 116 L 728.14 116 L 728.14 109.41 L 732.09 109.41 L 732.09 116 L 734.73 116 L 734.73 109.41 L 738.68 109.41 L 738.68 116 L 741.32 116 L 741.32 109.41 L 745.27 109.41 L 745.27 116 L 747.91 116 L 747.91 109.41 L 751.86 109.41 L 751.86 116 L 754.5 116 L 754.5 109.41 L 758.28 109.41 C 760.56 109.41 762.4 107.56 762.41 105.28 L 762.41 101.5 L 769 101.5 L 769 98.86 L 762.41 98.86 L 762.41 94.91 L 769 94.91 L 769 92.27 L 762.41 92.27 L 762.41 88.32 L 769 88.32 L 769 85.68 L 762.41 85.68 L 762.41 81.73 L 769 81.73 L 769 79.09 L 762.41 79.09 L 762.41 75.14 Z" fill="#23373b" stroke="none" pointer-events="all"/></g><g><rect x="203" y="0" width="414" height="30" fill="none" stroke="none" pointer-events="all"/></g><g><g fill="#23373B" font-family="Helvetica" font-weight="bold" font-style="italic" text-anchor="middle" font-size="25px"><text x="409.5" y="26">Edge-Cloud Continuum Eterogenity</text></g></g><g><path d="M 454.86 154.5 L 455 127" fill="none" stroke="rgb(0, 0, 0)" stroke-miterlimit="10" stroke-dasharray="1 2" pointer-events="stroke"/></g><g><path d="M 595.86 156 L 596 127" fill="none" stroke="rgb(0, 0, 0)" stroke-miterlimit="10" stroke-dasharray="1 2" pointer-events="stroke"/></g><g><path d="M 739.92 156 L 740 127" fill="none" stroke="rgb(0, 0, 0)" stroke-miterlimit="10" stroke-dasharray="1 2" pointer-events="stroke"/></g><g><path d="M 295.2 156 L 295 127" fill="none" stroke="rgb(0, 0, 0)" stroke-miterlimit="10" stroke-dasharray="1 2" pointer-events="stroke"/></g><g><path d="M 106.66 157 L 107 127" fill="none" stroke="rgb(0, 0, 0)" stroke-miterlimit="10" stroke-dasharray="1 2" pointer-events="stroke"/></g><g><rect x="314" y="169.5" width="191" height="30" fill="none" stroke="none" pointer-events="all"/></g><g><g fill="#FFFFFF" font-family="Helvetica" font-style="italic" text-anchor="middle" font-size="18px"><text x="409" y="192">Computational Resources Continuum</text></g></g></g></svg>