<?xml version="1.0" encoding="UTF-8"?>
<!DOCTYPE svg PUBLIC "-//W3C//DTD SVG 1.1//EN" "http://www.w3.org/Graphics/SVG/1.1/DTD/svg11.dtd">
<svg xmlns="http://www.w3.org/2000/svg" xmlns:xlink="http://www.w3.org/1999/xlink" version="1.1" width="883px" height="322px" viewBox="-0.5 -0.5 883 322"><defs><linearGradient x1="0%" y1="0%" x2="0%" y2="100%" id="mx-gradient-ffffff-1-23373b-1-s-0"><stop offset="0%" style="stop-color: rgb(255, 255, 255); stop-opacity: 1;"/><stop offset="100%" style="stop-color: rgb(35, 55, 59); stop-opacity: 1;"/></linearGradient></defs><g><g><rect x="1" y="80" width="360" height="240" rx="36" ry="36" fill="url(#mx-gradient-ffffff-1-23373b-1-s-0)" stroke="rgb(0, 0, 0)" stroke-width="2" pointer-events="all"/></g><g><rect x="521" y="80" width="360" height="240" rx="36" ry="36" fill="rgb(255, 255, 255)" stroke="rgb(0, 0, 0)" stroke-width="2" stroke-dasharray="2 2" pointer-events="all"/></g><g><rect x="541" y="100" width="320" height="40" rx="6" ry="6" fill="#bac0c1" stroke="rgb(0, 0, 0)" pointer-events="all"/></g><g><rect x="541" y="150" width="90" height="40" rx="6" ry="6" fill="#334649" stroke="rgb(0, 0, 0)" pointer-events="all"/></g><g><rect x="651" y="150" width="210" height="40" rx="6" ry="6" fill="#ebeff0" stroke="rgb(0, 0, 0)" pointer-events="all"/></g><g><rect x="541" y="200" width="150" height="100" rx="15" ry="15" fill="#5a6669" stroke="rgb(0, 0, 0)" pointer-events="all"/></g><g><rect x="701" y="205" width="160" height="40" rx="6" ry="6" fill="#7a8689" stroke="rgb(0, 0, 0)" pointer-events="all"/></g><g><rect x="701" y="255" width="160" height="40" rx="6" ry="6" fill="#b8bcbd" stroke="rgb(0, 0, 0)" pointer-events="all"/></g><g><path d="M 411.5 205 L 411.5 195 L 456.89 195 L 456.89 188.92 L 480.5 200 L 456.89 211.08 L 456.89 205 Z" fill="none" stroke="rgb(0, 0, 0)" stroke-miterlimit="10" pointer-events="all"/></g><g><rect x="96" y="0" width="170" height="60" fill="none" stroke="none" pointer-events="all"/></g><g><g fill="rgb(0, 0, 0)" font-family="Helvetica" font-weight="bold" font-style="italic" text-anchor="middle" font-size="31.999999999999996px"><text x="180.5" y="44.5">Macroprogram</text></g></g><g><rect x="616" y="0" width="170" height="60" fill="none" stroke="none" pointer-events="all"/></g><g><g fill="rgb(0, 0, 0)" font-family="Helvetica" font-weight="bold" font-style="italic" text-anchor="middle" font-size="31.999999999999996px"><text x="700.5" y="44.5">Component-based</text></g></g></g></svg>