<?xml version="1.0" encoding="UTF-8" standalone="no"?>
<svg
   width="595.849824pt"
   height="338.4pt"
   viewBox="0 0 595.849824 338.4"
   version="1.1"
   id="svg158"
   sodipodi:docname="power_consumption.svg"
   inkscape:version="1.3.2 (091e20ef0f, 2023-11-25, custom)"
   xmlns:inkscape="http://www.inkscape.org/namespaces/inkscape"
   xmlns:sodipodi="http://sodipodi.sourceforge.net/DTD/sodipodi-0.dtd"
   xmlns:xlink="http://www.w3.org/1999/xlink"
   xmlns="http://www.w3.org/2000/svg"
   xmlns:svg="http://www.w3.org/2000/svg"
   xmlns:rdf="http://www.w3.org/1999/02/22-rdf-syntax-ns#"
   xmlns:cc="http://creativecommons.org/ns#"
   xmlns:dc="http://purl.org/dc/elements/1.1/">
  <sodipodi:namedview
     id="namedview158"
     pagecolor="#ffffff"
     bordercolor="#999999"
     borderopacity="1"
     inkscape:showpageshadow="2"
     inkscape:pageopacity="0"
     inkscape:pagecheckerboard="0"
     inkscape:deskcolor="#d1d1d1"
     inkscape:document-units="pt"
     inkscape:zoom="3.180751"
     inkscape:cx="397.23324"
     inkscape:cy="225.73286"
     inkscape:window-width="3840"
     inkscape:window-height="2120"
     inkscape:window-x="3840"
     inkscape:window-y="0"
     inkscape:window-maximized="1"
     inkscape:current-layer="patch_1" />
  <metadata
     id="metadata1">
    <rdf:RDF>
      <cc:Work>
        <dc:type
           rdf:resource="http://purl.org/dc/dcmitype/StillImage" />
        <dc:date>2024-05-27T15:33:25.228090</dc:date>
        <dc:format>image/svg+xml</dc:format>
        <dc:creator>
          <cc:Agent>
            <dc:title>Matplotlib v3.8.4, https://matplotlib.org/</dc:title>
          </cc:Agent>
        </dc:creator>
      </cc:Work>
    </rdf:RDF>
  </metadata>
  <defs
     id="defs1">
    <style
       type="text/css"
       id="style1">*{stroke-linejoin: round; stroke-linecap: butt}</style>
  </defs>
  <g
     id="figure_1">
    <g
       id="patch_1" />
    <g
       id="axes_1">
      <g
         id="patch_2">
        <path
           d="M 70.092628 292.572031  L 446.4 292.572031  L 446.4 7.2  L 70.092628 7.2  z "
           style="fill: #ffffff"
           id="path2" />
      </g>
      <g
         id="matplotlib.axis_1">
        <g
           id="xtick_1">
          <g
             id="text_1">
            <!-- $\Downarrow$ -->
            <g
               style="fill: #262626"
               transform="translate(98.103018 309.682378) scale(0.11 -0.11)"
               id="g2">
              <defs
                 id="defs2">
                <path
                   id="CMSY10-2b"
                   d="M 2697 4211  C 2697 4326 2697 4442 2569 4442  C 2441 4442 2441 4320 2441 4211  L 2441 154  C 2192 -141 2020 -493 1949 -653  C 1873 -480 1700 -134 1458 154  L 1458 4211  C 1458 4326 1458 4442 1330 4442  C 1202 4442 1202 4326 1202 4211  L 1202 448  C 952 678 862 736 760 806  C 549 954 306 1088 267 1088  C 197 1088 197 1018 197 960  C 197 870 197 858 274 819  C 1265 307 1681 -467 1885 -1184  C 1892 -1222 1924 -1235 1949 -1235  C 2001 -1235 2013 -1190 2020 -1165  C 2263 -326 2736 358 3651 832  C 3702 858 3702 890 3702 960  C 3702 1018 3702 1088 3632 1088  C 3593 1088 3337 947 3139 813  C 3005 717 2915 646 2697 448  L 2697 4211  z "
                   transform="scale(0.015625)" />
              </defs>
              <use
                 xlink:href="#CMSY10-2b"
                 transform="scale(0.996264)"
                 id="use2" />
            </g>
          </g>
        </g>
        <g
           id="xtick_2">
          <g
             id="text_2">
            <!-- $\Updownarrow_{10\%}$ -->
            <g
               style="fill: #262626"
               transform="translate(152.852884 310.291209) scale(0.11 -0.11)"
               id="g6">
              <defs
                 id="defs3">
                <path
                   id="CMSY10-6d"
                   d="M 2697 3520  C 3126 3155 3593 2970 3632 2970  C 3702 2970 3702 3034 3702 3091  C 3702 3181 3702 3200 3645 3226  C 2967 3520 2404 3981 2039 4832  C 2007 4915 1994 4934 1949 4934  C 1905 4934 1892 4909 1860 4838  C 1463 3891 779 3456 344 3264  C 229 3206 222 3200 216 3194  C 197 3181 197 3168 197 3091  C 197 3034 197 2970 267 2970  C 306 2970 773 3162 1202 3520  L 1202 -320  C 773 45 306 230 267 230  C 197 230 197 166 197 109  C 197 19 197 0 254 -26  C 932 -320 1495 -781 1860 -1632  C 1892 -1715 1905 -1734 1949 -1734  C 1994 -1734 2007 -1709 2039 -1638  C 2436 -691 3120 -256 3555 -64  C 3670 -6 3677 0 3683 6  C 3702 19 3702 32 3702 109  C 3702 166 3702 230 3632 230  C 3593 230 3126 38 2697 -320  L 2697 3520  z M 1458 3776  C 1668 3994 1834 4237 1949 4448  C 2064 4237 2231 3994 2441 3776  L 2441 -576  C 2231 -794 2064 -1037 1949 -1248  C 1834 -1037 1668 -794 1458 -576  L 1458 3776  z "
                   transform="scale(0.015625)" />
                <path
                   id="CMR17-31"
                   d="M 1702 4058  C 1702 4192 1696 4192 1606 4192  C 1357 3916 979 3827 621 3827  C 602 3827 570 3827 563 3808  C 557 3795 557 3782 557 3648  C 755 3648 1088 3686 1344 3839  L 1344 461  C 1344 236 1331 160 781 160  L 589 160  L 589 0  C 896 0 1216 0 1523 0  C 1830 0 2150 0 2458 0  L 2458 160  L 2266 160  C 1715 160 1702 230 1702 458  L 1702 4058  z "
                   transform="scale(0.015625)" />
                <path
                   id="CMR17-30"
                   d="M 2688 2025  C 2688 2416 2682 3080 2413 3591  C 2176 4039 1798 4198 1466 4198  C 1158 4198 768 4058 525 3597  C 269 3118 243 2524 243 2025  C 243 1661 250 1106 448 619  C 723 -39 1216 -128 1466 -128  C 1760 -128 2208 -7 2470 600  C 2662 1042 2688 1559 2688 2025  z M 1466 -26  C 1056 -26 813 325 723 812  C 653 1188 653 1738 653 2096  C 653 2588 653 2997 736 3387  C 858 3929 1216 4096 1466 4096  C 1728 4096 2067 3923 2189 3400  C 2272 3036 2278 2607 2278 2096  C 2278 1680 2278 1169 2202 792  C 2067 95 1690 -26 1466 -26  z "
                   transform="scale(0.015625)" />
                <path
                   id="CMR17-25"
                   d="M 4640 959  C 4640 1698 4275 2240 3846 2240  C 3411 2240 2970 1736 2970 959  C 2970 183 3405 -320 3846 -320  C 4275 -320 4640 215 4640 959  z M 3853 -218  C 3686 -218 3270 -66 3270 959  C 3270 1991 3686 2138 3853 2138  C 4205 2138 4525 1634 4525 959  C 4525 285 4205 -218 3853 -218  z M 4083 4577  C 4128 4647 4134 4653 4134 4685  C 4134 4761 4077 4800 4026 4800  C 3962 4800 3936 4756 3891 4706  C 3520 4190 3008 4134 2746 4134  C 2106 4134 1715 4494 1594 4607  C 1510 4682 1389 4800 1171 4800  C 736 4800 294 4296 294 3519  C 294 2743 730 2240 1171 2240  C 1600 2240 1965 2778 1965 3527  C 1965 3969 1830 4270 1811 4308  C 2202 4064 2586 4032 2752 4032  C 3162 4032 3456 4183 3616 4289  L 3622 4283  L 858 -84  C 800 -174 800 -187 800 -206  C 800 -276 858 -320 915 -320  C 973 -320 992 -289 1037 -218  L 4083 4577  z M 1178 2342  C 1011 2342 595 2494 595 3519  C 595 4551 1011 4698 1178 4698  C 1530 4698 1850 4194 1850 3519  C 1850 2845 1530 2342 1178 2342  z "
                   transform="scale(0.015625)" />
              </defs>
              <use
                 xlink:href="#CMSY10-6d"
                 transform="scale(0.996264)"
                 id="use3" />
              <use
                 xlink:href="#CMR17-31"
                 transform="translate(60.882941 -17.925121) scale(0.697382)"
                 id="use4" />
              <use
                 xlink:href="#CMR17-30"
                 transform="translate(92.866123 -17.925121) scale(0.697382)"
                 id="use5" />
              <use
                 xlink:href="#CMR17-25"
                 transform="translate(124.849305 -17.925121) scale(0.697382)"
                 id="use6" />
            </g>
          </g>
        </g>
        <g
           id="xtick_3">
          <g
             id="text_3">
            <!-- $\Updownarrow_{20\%}$ -->
            <g
               style="fill: #262626"
               transform="translate(215.570779 310.291209) scale(0.11 -0.11)"
               id="g10">
              <defs
                 id="defs6">
                <path
                   id="CMR17-32"
                   d="M 2669 989  L 2554 989  C 2490 536 2438 459 2413 420  C 2381 369 1920 369 1830 369  L 602 369  C 832 619 1280 1072 1824 1597  C 2214 1967 2669 2402 2669 3035  C 2669 3790 2067 4224 1395 4224  C 691 4224 262 3604 262 3030  C 262 2780 448 2748 525 2748  C 589 2748 781 2787 781 3010  C 781 3207 614 3264 525 3264  C 486 3264 448 3258 422 3245  C 544 3790 915 4058 1306 4058  C 1862 4058 2227 3617 2227 3035  C 2227 2479 1901 2000 1536 1584  L 262 146  L 262 0  L 2515 0  L 2669 989  z "
                   transform="scale(0.015625)" />
              </defs>
              <use
                 xlink:href="#CMSY10-6d"
                 transform="scale(0.996264)"
                 id="use7" />
              <use
                 xlink:href="#CMR17-32"
                 transform="translate(60.882941 -17.925121) scale(0.697382)"
                 id="use8" />
              <use
                 xlink:href="#CMR17-30"
                 transform="translate(92.866123 -17.925121) scale(0.697382)"
                 id="use9" />
              <use
                 xlink:href="#CMR17-25"
                 transform="translate(124.849305 -17.925121) scale(0.697382)"
                 id="use10" />
            </g>
          </g>
        </g>
        <g
           id="xtick_4">
          <g
             id="text_4">
            <!-- $\Updownarrow_{30\%}$ -->
            <g
               style="fill: #262626"
               transform="translate(278.288675 310.291209) scale(0.11 -0.11)"
               id="g14">
              <defs
                 id="defs10">
                <path
                   id="CMR17-33"
                   d="M 1414 2157  C 1984 2157 2234 1662 2234 1090  C 2234 320 1824 25 1453 25  C 1114 25 563 194 390 693  C 422 680 454 680 486 680  C 640 680 755 782 755 948  C 755 1133 614 1216 486 1216  C 378 1216 211 1165 211 926  C 211 335 787 -128 1466 -128  C 2176 -128 2720 430 2720 1085  C 2720 1707 2208 2157 1600 2227  C 2086 2328 2554 2756 2554 3329  C 2554 3820 2048 4179 1472 4179  C 890 4179 378 3829 378 3329  C 378 3110 544 3072 627 3072  C 762 3072 877 3155 877 3321  C 877 3486 762 3569 627 3569  C 602 3569 570 3569 544 3557  C 730 3959 1235 4032 1459 4032  C 1683 4032 2106 3925 2106 3320  C 2106 3143 2080 2828 1862 2550  C 1670 2304 1453 2304 1242 2284  C 1210 2284 1062 2269 1037 2269  C 992 2263 966 2257 966 2208  C 966 2163 973 2157 1101 2157  L 1414 2157  z "
                   transform="scale(0.015625)" />
              </defs>
              <use
                 xlink:href="#CMSY10-6d"
                 transform="scale(0.996264)"
                 id="use11" />
              <use
                 xlink:href="#CMR17-33"
                 transform="translate(60.882941 -17.925121) scale(0.697382)"
                 id="use12" />
              <use
                 xlink:href="#CMR17-30"
                 transform="translate(92.866123 -17.925121) scale(0.697382)"
                 id="use13" />
              <use
                 xlink:href="#CMR17-25"
                 transform="translate(124.849305 -17.925121) scale(0.697382)"
                 id="use14" />
            </g>
          </g>
        </g>
        <g
           id="xtick_5">
          <g
             id="text_5">
            <!-- $\Updownarrow_{40\%}$ -->
            <g
               style="fill: #262626"
               transform="translate(341.00657 310.291209) scale(0.11 -0.11)"
               id="g18">
              <defs
                 id="defs14">
                <path
                   id="CMR17-34"
                   d="M 2150 4122  C 2150 4256 2144 4256 2029 4256  L 128 1254  L 128 1088  L 1779 1088  L 1779 457  C 1779 224 1766 160 1318 160  L 1197 160  L 1197 0  C 1402 0 1747 0 1965 0  C 2182 0 2528 0 2733 0  L 2733 160  L 2611 160  C 2163 160 2150 224 2150 457  L 2150 1088  L 2803 1088  L 2803 1254  L 2150 1254  L 2150 4122  z M 1798 3703  L 1798 1254  L 256 1254  L 1798 3703  z "
                   transform="scale(0.015625)" />
              </defs>
              <use
                 xlink:href="#CMSY10-6d"
                 transform="scale(0.996264)"
                 id="use15" />
              <use
                 xlink:href="#CMR17-34"
                 transform="translate(60.882941 -17.925121) scale(0.697382)"
                 id="use16" />
              <use
                 xlink:href="#CMR17-30"
                 transform="translate(92.866123 -17.925121) scale(0.697382)"
                 id="use17" />
              <use
                 xlink:href="#CMR17-25"
                 transform="translate(124.849305 -17.925121) scale(0.697382)"
                 id="use18" />
            </g>
          </g>
        </g>
        <g
           id="xtick_6">
          <g
             id="text_6">
            <!-- $\Uparrow$ -->
            <g
               style="fill: #262626"
               transform="translate(411.692495 309.682378) scale(0.11 -0.11)"
               id="g19">
              <defs
                 id="defs18">
                <path
                   id="CMSY10-2a"
                   d="M 2697 2752  C 2947 2522 3037 2464 3139 2394  C 3350 2246 3593 2112 3632 2112  C 3702 2112 3702 2182 3702 2240  C 3702 2330 3702 2342 3625 2381  C 2602 2906 2212 3706 2013 4384  C 2007 4422 1975 4435 1949 4435  C 1898 4435 1885 4390 1879 4365  C 1655 3597 1220 2867 248 2368  C 197 2342 197 2310 197 2240  C 197 2182 197 2112 267 2112  C 306 2112 562 2253 760 2387  C 894 2483 984 2554 1202 2752  L 1202 -1011  C 1202 -1126 1202 -1242 1330 -1242  C 1458 -1242 1458 -1126 1458 -1011  L 1458 3046  C 1707 3341 1879 3693 1949 3853  C 2026 3680 2199 3334 2441 3046  L 2441 -1011  C 2441 -1120 2441 -1242 2569 -1242  C 2697 -1242 2697 -1126 2697 -1011  L 2697 2752  z "
                   transform="scale(0.015625)" />
              </defs>
              <use
                 xlink:href="#CMSY10-2a"
                 transform="scale(0.996264)"
                 id="use19" />
            </g>
          </g>
        </g>
        <g
           id="text_7">
          <!-- Thresholds -->
          <g
             style="fill: #262626"
             transform="translate(223.072133 328.100524) scale(0.16 -0.16)"
             id="g29">
            <defs
               id="defs19">
              <path
                 id="CMSS17-54"
                 d="M 2317 3968  L 2848 3968  C 2925 3968 3002 3968 3078 3968  L 3878 3968  L 3878 4376  L 218 4376  L 218 3968  L 1018 3968  C 1094 3968 1171 3968 1248 3968  L 1779 3968  L 1779 -32  L 2317 -32  L 2317 3968  z "
                 transform="scale(0.015625)" />
              <path
                 id="CMSS17-68"
                 d="M 2618 1891  C 2618 2292 2522 2820 1798 2820  C 1395 2820 1133 2623 947 2407  L 947 4448  L 474 4448  L 474 32  L 960 32  L 960 1573  C 960 1973 1114 2432 1549 2432  C 2112 2432 2131 2056 2131 1839  L 2131 32  L 2618 32  L 2618 1891  z "
                 transform="scale(0.015625)" />
              <path
                 id="CMSS17-72"
                 d="M 954 1363  C 954 1965 1395 2368 1958 2368  L 1958 2789  C 1549 2789 1165 2585 934 2253  L 934 2758  L 480 2758  L 480 0  L 954 0  L 954 1363  z "
                 transform="scale(0.015625)" />
              <path
                 id="CMSS17-65"
                 d="M 2502 1377  C 2502 1590 2490 2003 2285 2345  C 2061 2713 1696 2816 1421 2816  C 755 2816 192 2188 192 1375  C 192 582 774 -64 1510 -64  C 1798 -64 2150 19 2470 248  C 2470 274 2458 414 2451 420  C 2451 433 2432 630 2432 656  C 2125 407 1773 325 1517 325  C 1107 325 666 667 646 1377  L 2502 1377  z M 698 1728  C 781 2084 1062 2421 1421 2421  C 1517 2421 1965 2421 2080 1728  L 698 1728  z "
                 transform="scale(0.015625)" />
              <path
                 id="CMSS17-73"
                 d="M 2061 2627  C 1683 2807 1389 2807 1197 2807  C 742 2807 198 2648 198 2003  C 198 1359 902 1218 1094 1179  C 1389 1122 1715 1058 1715 740  C 1715 337 1254 337 1171 337  C 915 337 563 407 243 638  L 166 210  C 531 0 883 -64 1178 -64  C 1965 -64 2163 416 2163 781  C 2163 1094 1984 1305 1862 1401  C 1651 1568 1574 1587 1050 1696  C 960 1709 646 1779 646 2066  C 646 2432 1050 2432 1139 2432  C 1555 2432 1811 2303 1984 2208  L 2061 2627  z "
                 transform="scale(0.015625)" />
              <path
                 id="CMSS17-6f"
                 d="M 2829 1356  C 2829 2176 2221 2816 1504 2816  C 768 2816 173 2157 173 1356  C 173 544 787 -64 1498 -64  C 2227 -64 2829 563 2829 1356  z M 1504 337  C 1050 337 659 709 659 1408  C 659 2151 1114 2427 1498 2427  C 1914 2427 2342 2126 2342 1408  C 2342 683 1926 337 1504 337  z "
                 transform="scale(0.015625)" />
              <path
                 id="CMSS17-6c"
                 d="M 947 4416  L 474 4416  L 474 0  L 947 0  L 947 4416  z "
                 transform="scale(0.015625)" />
              <path
                 id="CMSS17-64"
                 d="M 2611 4416  L 2138 4416  L 2138 2438  C 1939 2603 1613 2756 1254 2756  C 672 2756 211 2131 211 1347  C 211 562 666 -64 1235 -64  C 1677 -64 1971 172 2125 306  L 2125 -13  L 2611 -13  L 2611 4416  z M 2125 836  C 2125 747 2125 653 1926 482  C 1798 375 1645 325 1498 325  C 1152 325 698 576 698 1340  C 698 2134 1210 2368 1562 2368  C 1798 2368 1990 2254 2125 2065  L 2125 836  z "
                 transform="scale(0.015625)" />
            </defs>
            <use
               xlink:href="#CMSS17-54"
               transform="scale(0.996264)"
               id="use20" />
            <use
               xlink:href="#CMSS17-68"
               transform="translate(63.819454 0) scale(0.996264)"
               id="use21" />
            <use
               xlink:href="#CMSS17-72"
               transform="translate(112.024397 0) scale(0.996264)"
               id="use22" />
            <use
               xlink:href="#CMSS17-65"
               transform="translate(143.93417 0) scale(0.996264)"
               id="use23" />
            <use
               xlink:href="#CMSS17-73"
               transform="translate(185.572992 0) scale(0.996264)"
               id="use24" />
            <use
               xlink:href="#CMSS17-68"
               transform="translate(221.486534 0) scale(0.996264)"
               id="use25" />
            <use
               xlink:href="#CMSS17-6f"
               transform="translate(269.691477 0) scale(0.996264)"
               id="use26" />
            <use
               xlink:href="#CMSS17-6c"
               transform="translate(316.5351 0) scale(0.996264)"
               id="use27" />
            <use
               xlink:href="#CMSS17-64"
               transform="translate(338.715823 0) scale(0.996264)"
               id="use28" />
            <use
               xlink:href="#CMSS17-73"
               transform="translate(386.920766 0) scale(0.996264)"
               id="use29" />
          </g>
        </g>
      </g>
      <g
         id="matplotlib.axis_2">
        <g
           id="ytick_1">
          <g
             id="line2d_1">
            <path
               d="M 70.092628 292.572031  L 446.4 292.572031  "
               clip-path="url(#pd85328a01f)"
               style="fill: none; stroke: #cccccc; stroke-linecap: round"
               id="path29" />
          </g>
          <g
             id="text_8">
            <!-- $\mathdefault{0}$ -->
            <g
               style="fill: #262626"
               transform="translate(55.113161 296.377205) scale(0.11 -0.11)"
               id="g30">
              <use
                 xlink:href="#CMR17-30"
                 transform="scale(0.996264)"
                 id="use30" />
            </g>
          </g>
        </g>
        <g
           id="ytick_2">
          <g
             id="line2d_2">
            <path
               d="M 70.092628 242.479272  L 446.4 242.479272  "
               clip-path="url(#pd85328a01f)"
               style="fill: none; stroke: #cccccc; stroke-linecap: round"
               id="path30" />
          </g>
          <g
             id="text_9">
            <!-- $\mathdefault{20000}$ -->
            <g
               style="fill: #262626"
               transform="translate(33.195292 246.284445) scale(0.11 -0.11)"
               id="g35">
              <use
                 xlink:href="#CMR17-32"
                 transform="scale(0.996264)"
                 id="use31" />
              <use
                 xlink:href="#CMR17-30"
                 transform="translate(45.690477 0) scale(0.996264)"
                 id="use32" />
              <use
                 xlink:href="#CMR17-30"
                 transform="translate(91.380954 0) scale(0.996264)"
                 id="use33" />
              <use
                 xlink:href="#CMR17-30"
                 transform="translate(137.071431 0) scale(0.996264)"
                 id="use34" />
              <use
                 xlink:href="#CMR17-30"
                 transform="translate(182.761908 0) scale(0.996264)"
                 id="use35" />
            </g>
          </g>
        </g>
        <g
           id="ytick_3">
          <g
             id="line2d_3">
            <path
               d="M 70.092628 192.386512  L 446.4 192.386512  "
               clip-path="url(#pd85328a01f)"
               style="fill: none; stroke: #cccccc; stroke-linecap: round"
               id="path35" />
          </g>
          <g
             id="text_10">
            <!-- $\mathdefault{40000}$ -->
            <g
               style="fill: #262626"
               transform="translate(33.195292 196.191686) scale(0.11 -0.11)"
               id="g40">
              <use
                 xlink:href="#CMR17-34"
                 transform="scale(0.996264)"
                 id="use36" />
              <use
                 xlink:href="#CMR17-30"
                 transform="translate(45.690477 0) scale(0.996264)"
                 id="use37" />
              <use
                 xlink:href="#CMR17-30"
                 transform="translate(91.380954 0) scale(0.996264)"
                 id="use38" />
              <use
                 xlink:href="#CMR17-30"
                 transform="translate(137.071431 0) scale(0.996264)"
                 id="use39" />
              <use
                 xlink:href="#CMR17-30"
                 transform="translate(182.761908 0) scale(0.996264)"
                 id="use40" />
            </g>
          </g>
        </g>
        <g
           id="ytick_4">
          <g
             id="line2d_4">
            <path
               d="M 70.092628 142.293753  L 446.4 142.293753  "
               clip-path="url(#pd85328a01f)"
               style="fill: none; stroke: #cccccc; stroke-linecap: round"
               id="path40" />
          </g>
          <g
             id="text_11">
            <!-- $\mathdefault{60000}$ -->
            <g
               style="fill: #262626"
               transform="translate(33.195292 146.098926) scale(0.11 -0.11)"
               id="g45">
              <defs
                 id="defs40">
                <path
                   id="CMR17-36"
                   d="M 678 2176  C 678 3690 1395 4032 1811 4032  C 1946 4032 2272 4009 2400 3776  C 2298 3776 2106 3776 2106 3553  C 2106 3381 2246 3323 2336 3323  C 2394 3323 2566 3348 2566 3560  C 2566 3954 2246 4179 1805 4179  C 1043 4179 243 3390 243 1984  C 243 253 966 -128 1478 -128  C 2099 -128 2688 427 2688 1283  C 2688 2081 2170 2662 1517 2662  C 1126 2662 838 2407 678 1960  L 678 2176  z M 1478 25  C 691 25 691 1200 691 1436  C 691 1896 909 2560 1504 2560  C 1613 2560 1926 2560 2138 2120  C 2253 1870 2253 1609 2253 1289  C 2253 944 2253 690 2118 434  C 1978 171 1773 25 1478 25  z "
                   transform="scale(0.015625)" />
              </defs>
              <use
                 xlink:href="#CMR17-36"
                 transform="scale(0.996264)"
                 id="use41" />
              <use
                 xlink:href="#CMR17-30"
                 transform="translate(45.690477 0) scale(0.996264)"
                 id="use42" />
              <use
                 xlink:href="#CMR17-30"
                 transform="translate(91.380954 0) scale(0.996264)"
                 id="use43" />
              <use
                 xlink:href="#CMR17-30"
                 transform="translate(137.071431 0) scale(0.996264)"
                 id="use44" />
              <use
                 xlink:href="#CMR17-30"
                 transform="translate(182.761908 0) scale(0.996264)"
                 id="use45" />
            </g>
          </g>
        </g>
        <g
           id="ytick_5">
          <g
             id="line2d_5">
            <path
               d="M 70.092628 92.200993  L 446.4 92.200993  "
               clip-path="url(#pd85328a01f)"
               style="fill: none; stroke: #cccccc; stroke-linecap: round"
               id="path45" />
          </g>
          <g
             id="text_12">
            <!-- $\mathdefault{80000}$ -->
            <g
               style="fill: #262626"
               transform="translate(33.195292 96.006167) scale(0.11 -0.11)"
               id="g50">
              <defs
                 id="defs45">
                <path
                   id="CMR17-38"
                   d="M 1741 2264  C 2144 2467 2554 2773 2554 3263  C 2554 3841 1990 4179 1472 4179  C 890 4179 378 3759 378 3180  C 378 3021 416 2747 666 2505  C 730 2442 998 2251 1171 2130  C 883 1983 211 1634 211 934  C 211 279 838 -128 1459 -128  C 2144 -128 2720 362 2720 1010  C 2720 1590 2330 1857 2074 2029  L 1741 2264  z M 902 2822  C 851 2854 595 3051 595 3351  C 595 3739 998 4032 1459 4032  C 1965 4032 2336 3676 2336 3262  C 2336 2669 1670 2331 1638 2331  C 1632 2331 1626 2331 1574 2370  L 902 2822  z M 2080 1519  C 2176 1449 2483 1240 2483 851  C 2483 381 2010 25 1472 25  C 890 25 448 438 448 940  C 448 1443 838 1862 1280 2060  L 2080 1519  z "
                   transform="scale(0.015625)" />
              </defs>
              <use
                 xlink:href="#CMR17-38"
                 transform="scale(0.996264)"
                 id="use46" />
              <use
                 xlink:href="#CMR17-30"
                 transform="translate(45.690477 0) scale(0.996264)"
                 id="use47" />
              <use
                 xlink:href="#CMR17-30"
                 transform="translate(91.380954 0) scale(0.996264)"
                 id="use48" />
              <use
                 xlink:href="#CMR17-30"
                 transform="translate(137.071431 0) scale(0.996264)"
                 id="use49" />
              <use
                 xlink:href="#CMR17-30"
                 transform="translate(182.761908 0) scale(0.996264)"
                 id="use50" />
            </g>
          </g>
        </g>
        <g
           id="ytick_6">
          <g
             id="line2d_6">
            <path
               d="M 70.092628 42.108234  L 446.4 42.108234  "
               clip-path="url(#pd85328a01f)"
               style="fill: none; stroke: #cccccc; stroke-linecap: round"
               id="path50" />
          </g>
          <g
             id="text_13">
            <!-- $\mathdefault{100000}$ -->
            <g
               style="fill: #262626"
               transform="translate(27.715824 45.913407) scale(0.11 -0.11)"
               id="g56">
              <use
                 xlink:href="#CMR17-31"
                 transform="scale(0.996264)"
                 id="use51" />
              <use
                 xlink:href="#CMR17-30"
                 transform="translate(45.690477 0) scale(0.996264)"
                 id="use52" />
              <use
                 xlink:href="#CMR17-30"
                 transform="translate(91.380954 0) scale(0.996264)"
                 id="use53" />
              <use
                 xlink:href="#CMR17-30"
                 transform="translate(137.071431 0) scale(0.996264)"
                 id="use54" />
              <use
                 xlink:href="#CMR17-30"
                 transform="translate(182.761908 0) scale(0.996264)"
                 id="use55" />
              <use
                 xlink:href="#CMR17-30"
                 transform="translate(228.452386 0) scale(0.996264)"
                 id="use56" />
            </g>
          </g>
        </g>
        <g
           id="text_14">
          <!-- $P_{system} (W/h)$ -->
          <g
             style="fill: #262626"
             transform="translate(19.155168 194.890573) rotate(-90) scale(0.16 -0.16)"
             id="g68">
            <defs
               id="defs56">
              <path
                 id="CMMI12-50"
                 d="M 1894 2023  L 2970 2023  C 3853 2023 4736 2673 4736 3401  C 4736 3898 4314 4352 3507 4352  L 1530 4352  C 1408 4352 1350 4352 1350 4231  C 1350 4167 1408 4167 1504 4167  C 1894 4167 1894 4116 1894 4046  C 1894 4034 1894 3995 1869 3899  L 1005 472  C 947 249 934 185 486 185  C 365 185 301 185 301 70  C 301 0 358 0 397 0  C 518 0 646 0 768 0  L 1517 0  C 1638 0 1773 0 1894 0  C 1946 0 2016 0 2016 121  C 2016 185 1958 185 1862 185  C 1478 185 1472 230 1472 293  C 1472 325 1478 369 1485 401  L 1894 2023  z M 2355 3930  C 2413 4167 2438 4167 2688 4167  L 3322 4167  C 3802 4167 4198 4013 4198 3535  C 4198 3369 4115 2827 3821 2534  C 3712 2419 3405 2176 2822 2176  L 1920 2176  L 2355 3930  z "
                 transform="scale(0.015625)" />
              <path
                 id="CMMI12-73"
                 d="M 1459 1280  C 1568 1261 1741 1223 1779 1216  C 1862 1192 2150 1090 2150 783  C 2150 586 1971 70 1229 70  C 1094 70 614 70 486 436  C 742 404 870 603 870 745  C 870 880 781 950 653 950  C 512 950 326 841 326 552  C 326 173 710 -64 1222 -64  C 2195 -64 2483 651 2483 984  C 2483 1079 2483 1258 2278 1462  C 2118 1616 1965 1648 1619 1718  C 1446 1756 1171 1814 1171 2101  C 1171 2229 1286 2689 1894 2689  C 2163 2689 2426 2589 2490 2368  C 2208 2368 2195 2125 2195 2119  C 2195 1984 2317 1946 2374 1946  C 2464 1946 2643 2015 2643 2281  C 2643 2545 2400 2816 1901 2816  C 1062 2816 838 2160 838 1899  C 838 1414 1312 1312 1459 1280  z "
                 transform="scale(0.015625)" />
              <path
                 id="CMMI12-79"
                 d="M 1683 -700  C 1510 -939 1261 -1152 947 -1152  C 870 -1152 563 -1152 467 -889  C 486 -895 518 -895 531 -895  C 723 -895 851 -729 851 -582  C 851 -435 730 -384 634 -384  C 531 -384 307 -458 307 -759  C 307 -1071 582 -1286 947 -1286  C 1587 -1286 2234 -700 2413 6  L 3040 2485  C 3046 2517 3059 2556 3059 2594  C 3059 2689 2982 2753 2886 2753  C 2829 2753 2694 2727 2643 2535  L 2170 658  C 2138 543 2138 530 2086 460  C 1958 281 1747 64 1440 64  C 1082 64 1050 415 1050 588  C 1050 952 1222 1443 1395 1903  C 1466 2088 1504 2178 1504 2305  C 1504 2574 1312 2816 998 2816  C 410 2816 173 1890 173 1839  C 173 1814 198 1782 243 1782  C 301 1782 307 1807 333 1897  C 486 2433 730 2689 979 2689  C 1037 2689 1146 2689 1146 2478  C 1146 2312 1075 2127 979 1884  C 666 1047 666 837 666 683  C 666 77 1101 -64 1421 -64  C 1606 -64 1837 -6 2061 230  L 2067 224  C 1971 -147 1907 -392 1683 -700  z "
                 transform="scale(0.015625)" />
              <path
                 id="CMMI12-74"
                 d="M 1286 2566  L 1875 2566  C 1997 2566 2061 2566 2061 2681  C 2061 2752 2022 2752 1894 2752  L 1331 2752  L 1568 3692  C 1594 3781 1594 3794 1594 3840  C 1594 3943 1510 4000 1427 4000  C 1376 4000 1229 3981 1178 3775  L 928 2752  L 326 2752  C 198 2752 141 2752 141 2630  C 141 2566 186 2566 307 2566  L 877 2566  L 454 881  C 403 658 384 594 384 511  C 384 211 595 -64 954 -64  C 1600 -64 1946 868 1946 912  C 1946 951 1920 970 1882 970  C 1869 970 1843 970 1830 944  C 1824 938 1818 931 1773 829  C 1638 511 1344 64 973 64  C 781 64 768 224 768 364  C 768 370 768 492 787 568  L 1286 2566  z "
                 transform="scale(0.015625)" />
              <path
                 id="CMMI12-65"
                 d="M 1146 1479  C 1318 1479 1754 1479 2061 1595  C 2547 1783 2592 2158 2592 2274  C 2592 2558 2349 2816 1926 2816  C 1254 2816 288 2210 288 1073  C 288 402 672 -64 1254 -64  C 2125 -64 2675 609 2675 692  C 2675 730 2637 762 2611 762  C 2592 762 2586 756 2528 699  C 2118 159 1510 64 1267 64  C 902 64 710 350 710 822  C 710 911 710 1071 806 1479  L 1146 1479  z M 838 1600  C 1114 2592 1722 2689 1926 2689  C 2208 2689 2400 2522 2400 2277  C 2400 1600 1376 1600 1107 1600  L 838 1600  z "
                 transform="scale(0.015625)" />
              <path
                 id="CMMI12-6d"
                 d="M 1318 1871  C 1331 1910 1491 2229 1728 2433  C 1894 2586 2112 2689 2362 2689  C 2618 2689 2707 2497 2707 2242  C 2707 2203 2707 2076 2630 1775  L 2470 1118  C 2419 926 2298 453 2285 383  C 2259 287 2221 121 2221 96  C 2221 6 2291 -64 2387 -64  C 2579 -64 2611 83 2669 313  L 3053 1839  C 3066 1890 3398 2689 4102 2689  C 4358 2689 4448 2497 4448 2242  C 4448 1884 4198 1188 4058 805  C 4000 651 3968 568 3968 453  C 3968 166 4166 -64 4474 -64  C 5069 -64 5293 875 5293 913  C 5293 945 5267 971 5229 971  C 5171 971 5165 952 5133 843  C 4986 332 4749 64 4493 64  C 4429 64 4326 64 4326 269  C 4326 436 4403 640 4429 710  C 4544 1018 4832 1773 4832 2145  C 4832 2528 4608 2816 4122 2816  C 3693 2816 3347 2574 3091 2197  C 3072 2542 2861 2816 2381 2816  C 1811 2816 1510 2415 1395 2255  C 1376 2618 1114 2816 832 2816  C 646 2816 499 2727 378 2484  C 262 2254 173 1865 173 1839  C 173 1814 198 1782 243 1782  C 294 1782 301 1788 339 1935  C 435 2312 557 2689 813 2689  C 960 2689 1011 2586 1011 2395  C 1011 2254 947 2005 902 1807  L 723 1118  C 698 996 627 709 595 594  C 550 428 480 128 480 96  C 480 6 550 -64 646 -64  C 723 -64 813 -26 864 70  C 877 102 934 326 966 453  L 1107 1028  L 1318 1871  z "
                 transform="scale(0.015625)" />
              <path
                 id="CMR17-28"
                 d="M 1958 -1561  C 1958 -1555 1958 -1542 1939 -1523  C 1645 -1224 858 -407 858 1581  C 858 3569 1632 4379 1946 4697  C 1946 4704 1958 4717 1958 4736  C 1958 4755 1939 4768 1914 4768  C 1843 4768 1299 4296 986 3594  C 666 2887 576 2199 576 1588  C 576 1128 621 351 1005 -471  C 1312 -1135 1837 -1600 1914 -1600  C 1946 -1600 1958 -1587 1958 -1561  z "
                 transform="scale(0.015625)" />
              <path
                 id="CMMI12-57"
                 d="M 5779 3646  C 5926 3894 6067 4129 6451 4168  C 6509 4174 6566 4180 6566 4282  C 6566 4352 6509 4352 6490 4352  C 6477 4352 6432 4352 6010 4352  C 5818 4352 5619 4352 5434 4352  C 5395 4352 5318 4352 5318 4226  C 5318 4166 5370 4160 5408 4160  C 5536 4160 5741 4122 5741 3925  C 5741 3842 5715 3797 5651 3690  L 3904 648  L 3674 3963  C 3674 4039 3744 4160 4102 4160  C 4186 4160 4250 4160 4250 4286  C 4250 4352 4186 4352 4154 4352  C 3930 4352 3693 4352 3462 4352  L 3130 4352  C 3034 4352 2918 4352 2822 4352  C 2784 4352 2707 4352 2707 4226  C 2707 4160 2752 4160 2861 4160  C 3155 4160 3155 4153 3181 3772  L 3200 3543  L 1542 648  L 1306 3931  C 1306 4002 1306 4160 1741 4160  C 1811 4160 1882 4160 1882 4279  C 1882 4352 1824 4352 1786 4352  C 1562 4352 1325 4352 1094 4352  L 762 4352  C 666 4352 550 4352 454 4352  C 416 4352 339 4352 339 4226  C 339 4160 390 4160 480 4160  C 781 4160 787 4121 800 3918  L 1082 18  C 1088 -90 1094 -128 1171 -128  C 1235 -128 1248 -103 1306 -7  L 3213 3307  L 3450 18  C 3456 -90 3462 -128 3539 -128  C 3603 -128 3622 -96 3674 -7  L 5779 3646  z "
                 transform="scale(0.015625)" />
              <path
                 id="CMMI12-3d"
                 d="M 2746 4562  C 2746 4569 2784 4666 2784 4678  C 2784 4755 2720 4800 2669 4800  C 2637 4800 2579 4800 2528 4659  L 384 -1363  C 384 -1370 346 -1465 346 -1478  C 346 -1555 410 -1600 461 -1600  C 499 -1600 557 -1593 602 -1459  L 2746 4562  z "
                 transform="scale(0.015625)" />
              <path
                 id="CMMI12-68"
                 d="M 1798 4257  C 1805 4283 1818 4321 1818 4352  C 1818 4416 1754 4416 1741 4416  C 1734 4416 1421 4388 1389 4380  C 1280 4373 1184 4358 1069 4358  C 909 4345 864 4339 864 4224  C 864 4160 915 4160 1005 4160  C 1318 4160 1325 4103 1325 4040  C 1325 4002 1312 3951 1306 3932  L 378 248  C 352 152 352 140 352 101  C 352 -38 461 -64 525 -64  C 634 -64 717 19 749 89  L 1037 1245  C 1069 1386 1107 1520 1139 1660  C 1210 1929 1210 1935 1331 2120  C 1453 2305 1741 2689 2234 2689  C 2490 2689 2579 2497 2579 2242  C 2579 1884 2330 1188 2189 805  C 2131 651 2099 568 2099 453  C 2099 166 2298 -64 2605 -64  C 3200 -64 3424 875 3424 913  C 3424 945 3398 971 3360 971  C 3302 971 3296 952 3264 843  C 3117 332 2880 64 2624 64  C 2560 64 2458 64 2458 269  C 2458 436 2534 640 2560 710  C 2675 1018 2963 1773 2963 2145  C 2963 2528 2739 2816 2253 2816  C 1888 2816 1568 2644 1306 2312  L 1798 4257  z "
                 transform="scale(0.015625)" />
              <path
                 id="CMR17-29"
                 d="M 1683 1581  C 1683 2040 1638 2817 1254 3639  C 947 4303 422 4768 346 4768  C 326 4768 301 4761 301 4729  C 301 4717 307 4710 314 4697  C 621 4378 1402 3568 1402 1584  C 1402 -407 627 -1217 314 -1537  C 307 -1549 301 -1556 301 -1568  C 301 -1600 326 -1600 346 -1600  C 416 -1600 960 -1128 1274 -426  C 1594 281 1683 969 1683 1581  z "
                 transform="scale(0.015625)" />
            </defs>
            <use
               xlink:href="#CMMI12-50"
               transform="scale(0.996264)"
               id="use57" />
            <use
               xlink:href="#CMMI12-73"
               transform="translate(62.877232 -14.943915) scale(0.697382)"
               id="use58" />
            <use
               xlink:href="#CMMI12-79"
               transform="translate(95.042121 -14.943915) scale(0.697382)"
               id="use59" />
            <use
               xlink:href="#CMMI12-73"
               transform="translate(130.839096 -14.943915) scale(0.697382)"
               id="use60" />
            <use
               xlink:href="#CMMI12-74"
               transform="translate(163.003985 -14.943915) scale(0.697382)"
               id="use61" />
            <use
               xlink:href="#CMMI12-65"
               transform="translate(187.662294 -14.943915) scale(0.697382)"
               id="use62" />
            <use
               xlink:href="#CMMI12-6d"
               transform="translate(219.310551 -14.943915) scale(0.697382)"
               id="use63" />
            <use
               xlink:href="#CMR17-28"
               transform="translate(279.537474 0) scale(0.996264)"
               id="use64" />
            <use
               xlink:href="#CMMI12-57"
               transform="translate(314.818241 0) scale(0.996264)"
               id="use65" />
            <use
               xlink:href="#CMMI12-3d"
               transform="translate(409.623868 0) scale(0.996264)"
               id="use66" />
            <use
               xlink:href="#CMMI12-68"
               transform="translate(458.398787 0) scale(0.996264)"
               id="use67" />
            <use
               xlink:href="#CMR17-29"
               transform="translate(514.553411 0) scale(0.996264)"
               id="use68" />
          </g>
        </g>
      </g>
      <g
         id="patch_3">
        <path
           d="M 76.364418 292.572031  L 93.08919 292.572031  L 93.08919 290.903819  L 76.364418 290.903819  z "
           clip-path="url(#p727a3aeba2)"
           style="fill: #3b528b; fill-opacity: 0.7; stroke: #3b528b; stroke-width: 2; stroke-linejoin: miter"
           id="path68" />
      </g>
      <g
         id="patch_4">
        <path
           d="M 93.08919 292.572031  L 109.813962 292.572031  L 109.813962 290.978228  L 93.08919 290.978228  z "
           clip-path="url(#pdfd7b807e2)"
           style="fill: #21918c; fill-opacity: 0.7; stroke: #21918c; stroke-width: 2; stroke-linejoin: miter"
           id="path69" />
      </g>
      <g
         id="patch_5">
        <path
           d="M 109.813962 292.572031  L 126.538734 292.572031  L 126.538734 290.995416  L 109.813962 290.995416  z "
           clip-path="url(#p59f5d420df)"
           style="fill: #5ec962; fill-opacity: 0.7; stroke: #5ec962; stroke-width: 2; stroke-linejoin: miter"
           id="path70" />
      </g>
      <g
         id="patch_6">
        <path
           d="M 139.082313 292.572031  L 155.807085 292.572031  L 155.807085 255.803215  L 139.082313 255.803215  z "
           clip-path="url(#p901778b27c)"
           style="fill: #3b528b; fill-opacity: 0.7; stroke: #3b528b; stroke-width: 2; stroke-linejoin: miter"
           id="path71" />
      </g>
      <g
         id="patch_7">
        <path
           d="M 155.807085 292.572031  L 172.531857 292.572031  L 172.531857 262.42904  L 155.807085 262.42904  z "
           clip-path="url(#pa62debddfe)"
           style="fill: #21918c; fill-opacity: 0.7; stroke: #21918c; stroke-width: 2; stroke-linejoin: miter"
           id="path72" />
      </g>
      <g
         id="patch_8">
        <path
           d="M 172.531857 292.572031  L 189.256629 292.572031  L 189.256629 289.404505  L 172.531857 289.404505  z "
           clip-path="url(#p91b92922ca)"
           style="fill: #5ec962; fill-opacity: 0.7; stroke: #5ec962; stroke-width: 2; stroke-linejoin: miter"
           id="path73" />
      </g>
      <g
         id="patch_9">
        <path
           d="M 201.800208 292.572031  L 218.52498 292.572031  L 218.52498 227.493823  L 201.800208 227.493823  z "
           clip-path="url(#pe690b7c773)"
           style="fill: #3b528b; fill-opacity: 0.7; stroke: #3b528b; stroke-width: 2; stroke-linejoin: miter"
           id="path74" />
      </g>
      <g
         id="patch_10">
        <path
           d="M 218.52498 292.572031  L 235.249752 292.572031  L 235.249752 233.181065  L 218.52498 233.181065  z "
           clip-path="url(#p655d022af3)"
           style="fill: #21918c; fill-opacity: 0.7; stroke: #21918c; stroke-width: 2; stroke-linejoin: miter"
           id="path75" />
      </g>
      <g
         id="patch_11">
        <path
           d="M 235.249752 292.572031  L 251.974524 292.572031  L 251.974524 285.647285  L 235.249752 285.647285  z "
           clip-path="url(#p787658ead1)"
           style="fill: #5ec962; fill-opacity: 0.7; stroke: #5ec962; stroke-width: 2; stroke-linejoin: miter"
           id="path76" />
      </g>
      <g
         id="patch_12">
        <path
           d="M 264.518104 292.572031  L 281.242876 292.572031  L 281.242876 204.01709  L 264.518104 204.01709  z "
           clip-path="url(#pf1e9f84b19)"
           style="fill: #3b528b; fill-opacity: 0.7; stroke: #3b528b; stroke-width: 2; stroke-linejoin: miter"
           id="path77" />
      </g>
      <g
         id="patch_13">
        <path
           d="M 281.242876 292.572031  L 297.967648 292.572031  L 297.967648 205.319616  L 281.242876 205.319616  z "
           clip-path="url(#p4fca6b94ff)"
           style="fill: #21918c; fill-opacity: 0.7; stroke: #21918c; stroke-width: 2; stroke-linejoin: miter"
           id="path78" />
      </g>
      <g
         id="patch_14">
        <path
           d="M 297.967648 292.572031  L 314.69242 292.572031  L 314.69242 278.502401  L 297.967648 278.502401  z "
           clip-path="url(#pefde601a87)"
           style="fill: #5ec962; fill-opacity: 0.7; stroke: #5ec962; stroke-width: 2; stroke-linejoin: miter"
           id="path79" />
      </g>
      <g
         id="patch_15">
        <path
           d="M 327.235999 292.572031  L 343.960771 292.572031  L 343.960771 181.154602  L 327.235999 181.154602  z "
           clip-path="url(#p2dd81aa399)"
           style="fill: #3b528b; fill-opacity: 0.7; stroke: #3b528b; stroke-width: 2; stroke-linejoin: miter"
           id="path80" />
      </g>
      <g
         id="patch_16">
        <path
           d="M 343.960771 292.572031  L 360.685543 292.572031  L 360.685543 175.424855  L 343.960771 175.424855  z "
           clip-path="url(#p53cb00f1e4)"
           style="fill: #21918c; fill-opacity: 0.7; stroke: #21918c; stroke-width: 2; stroke-linejoin: miter"
           id="path81" />
      </g>
      <g
         id="patch_17">
        <path
           d="M 360.685543 292.572031  L 377.410315 292.572031  L 377.410315 251.484071  L 360.685543 251.484071  z "
           clip-path="url(#p3926614481)"
           style="fill: #5ec962; fill-opacity: 0.7; stroke: #5ec962; stroke-width: 2; stroke-linejoin: miter"
           id="path82" />
      </g>
      <g
         id="patch_18">
        <path
           d="M 389.953894 292.572031  L 406.678666 292.572031  L 406.678666 20.815463  L 389.953894 20.815463  z "
           clip-path="url(#pe92c1c1728)"
           style="fill: #3b528b; fill-opacity: 0.7; stroke: #3b528b; stroke-width: 2; stroke-linejoin: miter"
           id="path83" />
      </g>
      <g
         id="patch_19">
        <path
           d="M 406.678666 292.572031  L 423.403438 292.572031  L 423.403438 20.865684  L 406.678666 20.865684  z "
           clip-path="url(#pd34ada1894)"
           style="fill: #21918c; fill-opacity: 0.7; stroke: #21918c; stroke-width: 2; stroke-linejoin: miter"
           id="path84" />
      </g>
      <g
         id="patch_20">
        <path
           d="M 423.403438 292.572031  L 440.12821 292.572031  L 440.12821 20.923445  L 423.403438 20.923445  z "
           clip-path="url(#p1c73a577c6)"
           style="fill: #5ec962; fill-opacity: 0.7; stroke: #5ec962; stroke-width: 2; stroke-linejoin: miter"
           id="path85" />
      </g>
      <g
         id="LineCollection_1">
        <path
           d="M 84.726804 290.919386  L 84.726804 290.888252  "
           clip-path="url(#pd85328a01f)"
           style="fill: none; stroke: #3b528b; stroke-width: 1.5; stroke-linecap: square"
           id="path86" />
        <path
           d="M 147.444699 256.674672  L 147.444699 254.931757  "
           clip-path="url(#pd85328a01f)"
           style="fill: none; stroke: #3b528b; stroke-width: 1.5; stroke-linecap: square"
           id="path87" />
        <path
           d="M 210.162594 229.040747  L 210.162594 225.946899  "
           clip-path="url(#pd85328a01f)"
           style="fill: none; stroke: #3b528b; stroke-width: 1.5; stroke-linecap: square"
           id="path88" />
        <path
           d="M 272.88049 205.765276  L 272.88049 202.268903  "
           clip-path="url(#pd85328a01f)"
           style="fill: none; stroke: #3b528b; stroke-width: 1.5; stroke-linecap: square"
           id="path89" />
        <path
           d="M 335.598385 182.935559  L 335.598385 179.373644  "
           clip-path="url(#pd85328a01f)"
           style="fill: none; stroke: #3b528b; stroke-width: 1.5; stroke-linecap: square"
           id="path90" />
        <path
           d="M 398.31628 20.841781  L 398.31628 20.789144  "
           clip-path="url(#pd85328a01f)"
           style="fill: none; stroke: #3b528b; stroke-width: 1.5; stroke-linecap: square"
           id="path91" />
        <path
           d="M 101.451576 290.998877  L 101.451576 290.957579  "
           clip-path="url(#pd85328a01f)"
           style="fill: none; stroke: #21918c; stroke-width: 1.5; stroke-linecap: square"
           id="path92" />
        <path
           d="M 164.169471 262.654269  L 164.169471 262.203812  "
           clip-path="url(#pd85328a01f)"
           style="fill: none; stroke: #21918c; stroke-width: 1.5; stroke-linecap: square"
           id="path93" />
        <path
           d="M 226.887366 233.398179  L 226.887366 232.963952  "
           clip-path="url(#pd85328a01f)"
           style="fill: none; stroke: #21918c; stroke-width: 1.5; stroke-linecap: square"
           id="path94" />
        <path
           d="M 289.605262 205.639464  L 289.605262 204.999767  "
           clip-path="url(#pd85328a01f)"
           style="fill: none; stroke: #21918c; stroke-width: 1.5; stroke-linecap: square"
           id="path95" />
        <path
           d="M 352.323157 175.804588  L 352.323157 175.045121  "
           clip-path="url(#pd85328a01f)"
           style="fill: none; stroke: #21918c; stroke-width: 1.5; stroke-linecap: square"
           id="path96" />
        <path
           d="M 415.041052 20.886146  L 415.041052 20.845221  "
           clip-path="url(#pd85328a01f)"
           style="fill: none; stroke: #21918c; stroke-width: 1.5; stroke-linecap: square"
           id="path97" />
        <path
           d="M 118.176348 291.025728  L 118.176348 290.965104  "
           clip-path="url(#pd85328a01f)"
           style="fill: none; stroke: #5ec962; stroke-width: 1.5; stroke-linecap: square"
           id="path98" />
        <path
           d="M 180.894243 289.889538  L 180.894243 288.919473  "
           clip-path="url(#pd85328a01f)"
           style="fill: none; stroke: #5ec962; stroke-width: 1.5; stroke-linecap: square"
           id="path99" />
        <path
           d="M 243.612138 286.600104  L 243.612138 284.694465  "
           clip-path="url(#pd85328a01f)"
           style="fill: none; stroke: #5ec962; stroke-width: 1.5; stroke-linecap: square"
           id="path100" />
        <path
           d="M 306.330034 280.216271  L 306.330034 276.788531  "
           clip-path="url(#pd85328a01f)"
           style="fill: none; stroke: #5ec962; stroke-width: 1.5; stroke-linecap: square"
           id="path101" />
        <path
           d="M 369.047929 253.972029  L 369.047929 248.996114  "
           clip-path="url(#pd85328a01f)"
           style="fill: none; stroke: #5ec962; stroke-width: 1.5; stroke-linecap: square"
           id="path102" />
        <path
           d="M 431.765824 20.954528  L 431.765824 20.892362  "
           clip-path="url(#pd85328a01f)"
           style="fill: none; stroke: #5ec962; stroke-width: 1.5; stroke-linecap: square"
           id="path103" />
      </g>
      <g
         id="patch_21">
        <path
           d="M 70.092628 292.572031  L 70.092628 7.2  "
           style="fill: none; stroke: #cccccc; stroke-width: 1.25; stroke-linejoin: miter; stroke-linecap: square"
           id="path104" />
      </g>
      <g
         id="patch_22">
        <path
           d="M 446.4 292.572031  L 446.4 7.2  "
           style="fill: none; stroke: #cccccc; stroke-width: 1.25; stroke-linejoin: miter; stroke-linecap: square"
           id="path105" />
      </g>
      <g
         id="patch_23">
        <path
           d="M 70.092628 292.572031  L 446.4 292.572031  "
           style="fill: none; stroke: #cccccc; stroke-width: 1.25; stroke-linejoin: miter; stroke-linecap: square"
           id="path106" />
      </g>
      <g
         id="patch_24">
        <path
           d="M 70.092628 7.2  L 446.4 7.2  "
           style="fill: none; stroke: #cccccc; stroke-width: 1.25; stroke-linejoin: miter; stroke-linecap: square"
           id="path107" />
      </g>
    </g>
    <g
       id="legend_1">
      <g
         id="patch_25">
        <path
           d="M 462.784 193.482602  L 589.049824 193.482602  Q 592.249824 193.482602 592.249824 190.282602  L 592.249824 106.357398  Q 592.249824 103.157398 589.049824 103.157398  L 462.784 103.157398  Q 459.584 103.157398 459.584 106.357398  L 459.584 190.282602  Q 459.584 193.482602 462.784 193.482602  z "
           style="fill: #ffffff; opacity: 0.8; stroke: #cccccc; stroke-linejoin: miter"
           id="path108" />
      </g>
      <g
         id="text_15">
        <!-- SwapPolicy -->
        <g
           transform="translate(498.526918 117.859578) scale(0.12 -0.12)"
           id="g117">
          <defs
             id="defs108">
            <path
               id="CMSS17-53"
               d="M 2797 4169  C 2515 4334 2208 4480 1690 4480  C 864 4480 333 3879 333 3266  C 333 3025 403 2753 653 2475  C 902 2196 1184 2121 1542 2033  C 1690 1994 1939 1924 1984 1906  C 2342 1767 2515 1444 2515 1140  C 2515 742 2202 318 1645 318  C 1453 318 890 318 358 819  L 269 318  C 794 -64 1363 -128 1651 -128  C 2438 -128 3002 488 3002 1186  C 3002 1440 2925 1763 2656 2061  C 2394 2347 2163 2410 1638 2549  C 1338 2626 1146 2677 986 2873  C 877 3013 819 3146 819 3317  C 819 3673 1126 4060 1690 4060  C 1971 4060 2336 4002 2707 3660  L 2797 4169  z "
               transform="scale(0.015625)" />
            <path
               id="CMSS17-77"
               d="M 4013 2752  L 3526 2752  L 3187 1601  C 3117 1358 2918 685 2893 371  L 2886 371  C 2874 564 2765 1024 2586 1633  L 2259 2752  L 1818 2752  L 1498 1658  C 1338 1101 1216 627 1203 371  L 1197 371  C 1171 749 909 1633 870 1773  L 582 2752  L 83 2752  L 915 0  L 1402 0  C 1734 1096 1990 1943 2010 2370  C 2022 2160 2131 1707 2195 1484  L 2618 0  L 3181 0  L 4013 2752  z "
               transform="scale(0.015625)" />
            <path
               id="CMSS17-61"
               d="M 2406 1791  C 2406 2392 1978 2808 1402 2808  C 1120 2808 813 2757 461 2553  L 499 2135  C 659 2248 934 2432 1395 2432  C 1722 2432 1920 2180 1920 1782  L 1920 1536  C 896 1536 256 1238 256 726  C 256 461 416 -64 947 -64  C 1043 -64 1562 -64 1933 217  L 1933 -19  L 2406 -19  L 2406 1791  z M 1920 816  C 1920 701 1920 548 1728 434  C 1562 325 1350 325 1261 325  C 941 325 723 511 723 744  C 723 1211 1722 1211 1920 1211  L 1920 816  z "
               transform="scale(0.015625)" />
            <path
               id="CMSS17-70"
               d="M 966 333  C 1178 129 1466 -5 1773 -5  C 2368 -5 2880 603 2880 1412  C 2880 2159 2496 2816 1946 2816  C 1626 2816 1242 2702 954 2472  L 954 2765  L 480 2765  L 480 -1216  L 966 -1216  L 966 333  z M 966 2100  C 1018 2176 1235 2415 1587 2415  C 2035 2415 2394 1960 2394 1412  C 2394 787 1958 384 1530 384  C 1402 384 1267 415 1139 523  C 966 674 966 768 966 857  L 966 2100  z "
               transform="scale(0.015625)" />
            <path
               id="CMSS17-50"
               d="M 2106 1856  C 2874 1856 3501 2453 3501 3158  C 3501 3850 2899 4453 2067 4453  L 570 4453  L 570 0  L 1107 0  L 1107 1856  L 2106 1856  z M 1926 4096  C 2669 4096 2995 3627 2995 3157  C 2995 2720 2694 2226 1926 2226  L 1094 2226  L 1094 4096  L 1926 4096  z "
               transform="scale(0.015625)" />
            <path
               id="CMSS17-69"
               d="M 979 4183  L 442 4183  L 442 3648  L 979 3648  L 979 4183  z M 947 2739  L 474 2739  L 474 0  L 947 0  L 947 2739  z "
               transform="scale(0.015625)" />
            <path
               id="CMSS17-63"
               d="M 2464 2541  C 2464 2585 2170 2714 2093 2739  C 1882 2816 1613 2816 1542 2816  C 710 2816 211 2093 211 1363  C 211 595 768 -64 1517 -64  C 1946 -64 2253 76 2502 242  L 2464 664  C 2189 453 1869 337 1523 337  C 1024 337 698 774 698 1369  C 698 1831 909 2414 1549 2414  C 1901 2414 2099 2343 2394 2145  L 2464 2541  z "
               transform="scale(0.015625)" />
            <path
               id="CMSS17-79"
               d="M 2675 2752  L 2176 2752  C 1632 1294 1446 702 1434 383  L 1427 383  C 1408 696 1126 1460 902 2007  L 602 2752  L 83 2752  L 1216 13  C 1146 -178 1043 -465 1011 -529  C 870 -885 774 -885 672 -885  C 646 -885 442 -885 211 -809  L 250 -1229  C 410 -1261 570 -1280 685 -1280  C 845 -1280 1165 -1280 1459 -497  L 2675 2752  z "
               transform="scale(0.015625)" />
          </defs>
          <use
             xlink:href="#CMSS17-53"
             transform="scale(0.996264)"
             id="use108" />
          <use
             xlink:href="#CMSS17-77"
             transform="translate(52.048516 0) scale(0.996264)"
             id="use109" />
          <use
             xlink:href="#CMSS17-61"
             transform="translate(113.265607 0) scale(0.996264)"
             id="use110" />
          <use
             xlink:href="#CMSS17-70"
             transform="translate(158.187528 0) scale(0.996264)"
             id="use111" />
          <use
             xlink:href="#CMSS17-50"
             transform="translate(206.392471 0) scale(0.996264)"
             id="use112" />
          <use
             xlink:href="#CMSS17-6f"
             transform="translate(263.525603 0) scale(0.996264)"
             id="use113" />
          <use
             xlink:href="#CMSS17-6c"
             transform="translate(310.369227 0) scale(0.996264)"
             id="use114" />
          <use
             xlink:href="#CMSS17-69"
             transform="translate(332.54995 0) scale(0.996264)"
             id="use115" />
          <use
             xlink:href="#CMSS17-63"
             transform="translate(354.730673 0) scale(0.996264)"
             id="use116" />
          <use
             xlink:href="#CMSS17-79"
             transform="translate(396.369495 0) scale(0.996264)"
             id="use117" />
        </g>
      </g>
      <g
         id="patch_26">
        <path
           d="M 465.984 139.384173  L 497.984 139.384173  L 497.984 128.184173  L 465.984 128.184173  z "
           style="fill: #3b528b; fill-opacity: 0.7; stroke: #3b528b; stroke-linejoin: miter"
           id="path117" />
      </g>
      <g
         id="line2d_7">
        <path
           d="M 465.984 133.784173  L 481.984 133.784173  L 497.984 133.784173  "
           style="fill: none; stroke: #3b528b; stroke-width: 1.5; stroke-linecap: square"
           id="path118" />
      </g>
      <g
         id="text_16">
        <!-- smartphone -->
        <g
           transform="translate(510.784 139.384173) scale(0.16 -0.16)"
           id="g127">
          <defs
             id="defs118">
            <path
               id="CMSS17-6d"
               d="M 4288 1877  C 4288 2308 4179 2816 3462 2816  C 2982 2816 2694 2516 2566 2331  C 2451 2670 2182 2816 1798 2816  C 1363 2816 1088 2568 941 2389  L 941 2758  L 474 2758  L 474 0  L 960 0  L 960 1559  C 960 1939 1101 2428 1555 2428  C 2138 2428 2138 2016 2138 1829  L 2138 0  L 2624 0  L 2624 1559  C 2624 1939 2765 2428 3219 2428  C 3802 2428 3802 2016 3802 1829  L 3802 0  L 4288 0  L 4288 1877  z "
               transform="scale(0.015625)" />
            <path
               id="CMSS17-74"
               d="M 1069 2368  L 1901 2368  L 1901 2737  L 1069 2737  L 1069 3520  L 614 3520  L 614 2737  L 109 2737  L 109 2368  L 602 2368  L 602 749  C 602 384 685 -64 1107 -64  C 1427 -64 1722 25 2003 172  L 1901 548  C 1747 414 1562 337 1363 337  C 1082 337 1069 696 1069 856  L 1069 2368  z "
               transform="scale(0.015625)" />
            <path
               id="CMSS17-6e"
               d="M 2618 1877  C 2618 2283 2522 2816 1798 2816  C 1389 2816 1120 2606 941 2389  L 941 2758  L 474 2758  L 474 0  L 960 0  L 960 1559  C 960 1964 1114 2428 1549 2428  C 2112 2428 2131 2048 2131 1829  L 2131 0  L 2618 0  L 2618 1877  z "
               transform="scale(0.015625)" />
          </defs>
          <use
             xlink:href="#CMSS17-73"
             transform="scale(0.996264)"
             id="use118" />
          <use
             xlink:href="#CMSS17-6d"
             transform="translate(35.913542 0) scale(0.996264)"
             id="use119" />
          <use
             xlink:href="#CMSS17-61"
             transform="translate(110.142796 0) scale(0.996264)"
             id="use120" />
          <use
             xlink:href="#CMSS17-72"
             transform="translate(152.462263 0) scale(0.996264)"
             id="use121" />
          <use
             xlink:href="#CMSS17-74"
             transform="translate(184.372036 0) scale(0.996264)"
             id="use122" />
          <use
             xlink:href="#CMSS17-70"
             transform="translate(218.203602 0) scale(0.996264)"
             id="use123" />
          <use
             xlink:href="#CMSS17-68"
             transform="translate(266.408545 0) scale(0.996264)"
             id="use124" />
          <use
             xlink:href="#CMSS17-6f"
             transform="translate(314.613489 0) scale(0.996264)"
             id="use125" />
          <use
             xlink:href="#CMSS17-6e"
             transform="translate(361.457112 0) scale(0.996264)"
             id="use126" />
          <use
             xlink:href="#CMSS17-65"
             transform="translate(409.662055 0) scale(0.996264)"
             id="use127" />
        </g>
      </g>
      <g
         id="patch_27">
        <path
           d="M 465.984 161.68365  L 497.984 161.68365  L 497.984 150.48365  L 465.984 150.48365  z "
           style="fill: #21918c; fill-opacity: 0.7; stroke: #21918c; stroke-linejoin: miter"
           id="path127" />
      </g>
      <g
         id="line2d_8">
        <path
           d="M 465.984 156.08365  L 481.984 156.08365  L 497.984 156.08365  "
           style="fill: none; stroke: #21918c; stroke-width: 1.5; stroke-linecap: square"
           id="path128" />
      </g>
      <g
         id="text_17">
        <!-- hybrid -->
        <g
           transform="translate(510.784 161.68365) scale(0.16 -0.16)"
           id="g133">
          <defs
             id="defs128">
            <path
               id="CMSS17-62"
               d="M 954 4416  L 480 4416  L 480 -13  L 966 -13  L 966 274  C 1210 38 1504 -64 1766 -64  C 2381 -64 2880 549 2880 1352  C 2880 2086 2496 2756 1926 2756  C 1523 2756 1165 2591 954 2419  L 954 4416  z M 966 2046  C 1107 2222 1306 2368 1587 2368  C 1965 2368 2394 2097 2394 1352  C 2394 558 1882 325 1530 325  C 1402 325 1267 356 1139 464  C 966 615 966 709 966 797  L 966 2046  z "
               transform="scale(0.015625)" />
          </defs>
          <use
             xlink:href="#CMSS17-68"
             transform="scale(0.996264)"
             id="use128" />
          <use
             xlink:href="#CMSS17-79"
             transform="translate(48.204943 0) scale(0.996264)"
             id="use129" />
          <use
             xlink:href="#CMSS17-62"
             transform="translate(91.205085 0) scale(0.996264)"
             id="use130" />
          <use
             xlink:href="#CMSS17-72"
             transform="translate(136.807574 0) scale(0.996264)"
             id="use131" />
          <use
             xlink:href="#CMSS17-69"
             transform="translate(168.717347 0) scale(0.996264)"
             id="use132" />
          <use
             xlink:href="#CMSS17-64"
             transform="translate(190.89807 0) scale(0.996264)"
             id="use133" />
        </g>
      </g>
      <g
         id="patch_28">
        <path
           d="M 465.984 183.983126  L 497.984 183.983126  L 497.984 172.783126  L 465.984 172.783126  z "
           style="fill: #5ec962; fill-opacity: 0.7; stroke: #5ec962; stroke-linejoin: miter"
           id="path133" />
      </g>
      <g
         id="line2d_9">
        <path
           d="M 465.984 178.383126  L 481.984 178.383126  L 497.984 178.383126  "
           style="fill: none; stroke: #5ec962; stroke-width: 1.5; stroke-linecap: square"
           id="path134" />
      </g>
      <g
         id="text_18">
        <!-- wearable -->
        <g
           transform="translate(510.784 183.983126) scale(0.16 -0.16)"
           id="g141">
          <use
             xlink:href="#CMSS17-77"
             transform="scale(0.996264)"
             id="use134" />
          <use
             xlink:href="#CMSS17-65"
             transform="translate(61.217091 0) scale(0.996264)"
             id="use135" />
          <use
             xlink:href="#CMSS17-61"
             transform="translate(102.855913 0) scale(0.996264)"
             id="use136" />
          <use
             xlink:href="#CMSS17-72"
             transform="translate(145.17538 0) scale(0.996264)"
             id="use137" />
          <use
             xlink:href="#CMSS17-61"
             transform="translate(177.085152 0) scale(0.996264)"
             id="use138" />
          <use
             xlink:href="#CMSS17-62"
             transform="translate(222.007073 0) scale(0.996264)"
             id="use139" />
          <use
             xlink:href="#CMSS17-6c"
             transform="translate(270.212016 0) scale(0.996264)"
             id="use140" />
          <use
             xlink:href="#CMSS17-65"
             transform="translate(292.392739 0) scale(0.996264)"
             id="use141" />
        </g>
      </g>
    </g>
  </g>
  <defs
     id="defs158">
    <clipPath
       id="pd85328a01f">
      <rect
         x="70.092628"
         y="7.2"
         width="376.307372"
         height="285.372031"
         id="rect141" />
    </clipPath>
    <clipPath
       id="p727a3aeba2">
      <path
         d="M 76.364418 292.572031  L 93.08919 292.572031  L 93.08919 290.903819  L 76.364418 290.903819  z "
         id="path141" />
    </clipPath>
    <clipPath
       id="pdfd7b807e2">
      <path
         d="M 93.08919 292.572031  L 109.813962 292.572031  L 109.813962 290.978228  L 93.08919 290.978228  z "
         id="path142" />
    </clipPath>
    <clipPath
       id="p59f5d420df">
      <path
         d="M 109.813962 292.572031  L 126.538734 292.572031  L 126.538734 290.995416  L 109.813962 290.995416  z "
         id="path143" />
    </clipPath>
    <clipPath
       id="p901778b27c">
      <path
         d="M 139.082313 292.572031  L 155.807085 292.572031  L 155.807085 255.803215  L 139.082313 255.803215  z "
         id="path144" />
    </clipPath>
    <clipPath
       id="pa62debddfe">
      <path
         d="M 155.807085 292.572031  L 172.531857 292.572031  L 172.531857 262.42904  L 155.807085 262.42904  z "
         id="path145" />
    </clipPath>
    <clipPath
       id="p91b92922ca">
      <path
         d="M 172.531857 292.572031  L 189.256629 292.572031  L 189.256629 289.404505  L 172.531857 289.404505  z "
         id="path146" />
    </clipPath>
    <clipPath
       id="pe690b7c773">
      <path
         d="M 201.800208 292.572031  L 218.52498 292.572031  L 218.52498 227.493823  L 201.800208 227.493823  z "
         id="path147" />
    </clipPath>
    <clipPath
       id="p655d022af3">
      <path
         d="M 218.52498 292.572031  L 235.249752 292.572031  L 235.249752 233.181065  L 218.52498 233.181065  z "
         id="path148" />
    </clipPath>
    <clipPath
       id="p787658ead1">
      <path
         d="M 235.249752 292.572031  L 251.974524 292.572031  L 251.974524 285.647285  L 235.249752 285.647285  z "
         id="path149" />
    </clipPath>
    <clipPath
       id="pf1e9f84b19">
      <path
         d="M 264.518104 292.572031  L 281.242876 292.572031  L 281.242876 204.01709  L 264.518104 204.01709  z "
         id="path150" />
    </clipPath>
    <clipPath
       id="p4fca6b94ff">
      <path
         d="M 281.242876 292.572031  L 297.967648 292.572031  L 297.967648 205.319616  L 281.242876 205.319616  z "
         id="path151" />
    </clipPath>
    <clipPath
       id="pefde601a87">
      <path
         d="M 297.967648 292.572031  L 314.69242 292.572031  L 314.69242 278.502401  L 297.967648 278.502401  z "
         id="path152" />
    </clipPath>
    <clipPath
       id="p2dd81aa399">
      <path
         d="M 327.235999 292.572031  L 343.960771 292.572031  L 343.960771 181.154602  L 327.235999 181.154602  z "
         id="path153" />
    </clipPath>
    <clipPath
       id="p53cb00f1e4">
      <path
         d="M 343.960771 292.572031  L 360.685543 292.572031  L 360.685543 175.424855  L 343.960771 175.424855  z "
         id="path154" />
    </clipPath>
    <clipPath
       id="p3926614481">
      <path
         d="M 360.685543 292.572031  L 377.410315 292.572031  L 377.410315 251.484071  L 360.685543 251.484071  z "
         id="path155" />
    </clipPath>
    <clipPath
       id="pe92c1c1728">
      <path
         d="M 389.953894 292.572031  L 406.678666 292.572031  L 406.678666 20.815463  L 389.953894 20.815463  z "
         id="path156" />
    </clipPath>
    <clipPath
       id="pd34ada1894">
      <path
         d="M 406.678666 292.572031  L 423.403438 292.572031  L 423.403438 20.865684  L 406.678666 20.865684  z "
         id="path157" />
    </clipPath>
    <clipPath
       id="p1c73a577c6">
      <path
         d="M 423.403438 292.572031  L 440.12821 292.572031  L 440.12821 20.923445  L 423.403438 20.923445  z "
         id="path158" />
    </clipPath>
  </defs>
</svg>
