<?xml version="1.0" encoding="UTF-8"?>
<!DOCTYPE svg PUBLIC "-//W3C//DTD SVG 1.1//EN" "http://www.w3.org/Graphics/SVG/1.1/DTD/svg11.dtd">
<svg xmlns="http://www.w3.org/2000/svg" xmlns:xlink="http://www.w3.org/1999/xlink" version="1.1" width="1187px" height="681px" viewBox="-0.5 -0.5 1187 681"><defs/><g><g><path d="M 648 400 L 1018 519.55 L 1018 560.45 L 648 680 L 278 560.45 L 278 519.55 Z" fill="#ffe6cc" stroke="#d79b00" stroke-miterlimit="10" pointer-events="all"/><path d="M 278 519.55 L 648 639.11 L 1018 519.55 M 648 639.11 L 648 680" fill="none" stroke="#d79b00" stroke-miterlimit="10" pointer-events="all"/></g><g><path d="M 778 465 L 849.68 497.34" fill="none" stroke="rgb(0, 0, 0)" stroke-miterlimit="10" stroke-dasharray="3 3" pointer-events="stroke"/></g><g><path d="M 738 490 L 743.08 515.19" fill="none" stroke="rgb(0, 0, 0)" stroke-miterlimit="10" stroke-dasharray="3 3" pointer-events="stroke"/></g><g><ellipse cx="738" cy="465" rx="40" ry="25" fill="rgb(255, 255, 255)" stroke="rgb(0, 0, 0)" stroke-width="2" stroke-dasharray="2 2" pointer-events="all"/></g><g><path d="M 648 200 L 1018 340 L 1018 340 L 648 480 L 278 340 L 278 340 Z" fill-opacity="0.5" fill="#fff2cc" stroke="#d6b656" stroke-opacity="0.5" stroke-miterlimit="10" pointer-events="all"/><path d="M 278 340 L 648 480 L 1018 340 M 648 480 L 648 480" fill="none" stroke="#d6b656" stroke-opacity="0.5" stroke-miterlimit="10" pointer-events="all"/></g><g><path d="M 466.32 357.66 L 608 405" fill="none" stroke="rgb(0, 0, 0)" stroke-miterlimit="10" pointer-events="stroke"/></g><g><path d="M 478 340 L 798 340" fill="none" stroke="rgb(0, 0, 0)" stroke-miterlimit="10" pointer-events="stroke"/></g><g><path d="M 466.32 322.34 L 608 275" fill="none" stroke="rgb(0, 0, 0)" stroke-miterlimit="10" pointer-events="stroke"/></g><g><ellipse cx="438" cy="340" rx="40" ry="25" fill="rgb(255, 255, 255)" stroke="rgb(0, 0, 0)" pointer-events="all"/></g><g><path d="M 688 275 L 809.68 322.34" fill="none" stroke="rgb(0, 0, 0)" stroke-miterlimit="10" pointer-events="stroke"/></g><g><ellipse cx="648" cy="275" rx="40" ry="25" fill="rgb(255, 255, 255)" stroke="rgb(0, 0, 0)" pointer-events="all"/></g><g><ellipse cx="668" cy="281.5" rx="10" ry="7.5" fill="#f8cecc" stroke="#b85450" pointer-events="all"/></g><g><ellipse cx="648" cy="263.5" rx="10" ry="7.5" fill="#dae8fc" stroke="#6c8ebf" pointer-events="all"/></g><g><path d="M 648 0 L 1018 140 L 1018 140 L 648 280 L 278 140 L 278 140 Z" fill-opacity="0.5" fill="#d5e8d4" stroke="#82b366" stroke-opacity="0.5" stroke-miterlimit="10" pointer-events="all"/><path d="M 278 140 L 648 280 L 1018 140 M 648 280 L 648 280" fill="none" stroke="#82b366" stroke-opacity="0.5" stroke-miterlimit="10" pointer-events="all"/></g><g><path d="M 1108 280 L 1098 280 Q 1088 280 1088 290 L 1088 330 Q 1088 340 1078 340 L 1073 340 Q 1068 340 1078 340 L 1083 340 Q 1088 340 1088 350 L 1088 390 Q 1088 400 1098 400 L 1108 400" fill="none" stroke="rgb(0, 0, 0)" stroke-width="2" stroke-miterlimit="10" transform="translate(1088,0)scale(-1,1)translate(-1088,0)" pointer-events="all"/></g><g><path d="M 1118 80 L 1108 80 Q 1098 80 1098 90 L 1098 130 Q 1098 140 1088 140 L 1083 140 Q 1078 140 1088 140 L 1093 140 Q 1098 140 1098 150 L 1098 190 Q 1098 200 1108 200 L 1118 200" fill="none" stroke="rgb(0, 0, 0)" stroke-width="2" stroke-miterlimit="10" transform="translate(1098,0)scale(-1,1)translate(-1098,0)" pointer-events="all"/></g><g><rect x="1048" y="113.75" width="210" height="52.5" fill="none" stroke="none" transform="rotate(-90,1153,140)" pointer-events="all"/></g><g><g fill="rgb(0, 0, 0)" font-family="Helvetica" font-weight="bold" text-anchor="middle" font-size="22px" transform="rotate(-90,1153,140)"><text x="1152.5" y="136.5">Macroprogramming</text><text x="1152.5" y="162.5">Abstraction</text></g></g><g><path d="M 1108 480 L 1098 480 Q 1088 480 1088 490 L 1088 530 Q 1088 540 1078 540 L 1073 540 Q 1068 540 1078 540 L 1083 540 Q 1088 540 1088 550 L 1088 590 Q 1088 600 1098 600 L 1108 600" fill="none" stroke="rgb(0, 0, 0)" stroke-width="2" stroke-miterlimit="10" transform="translate(1088,0)scale(-1,1)translate(-1088,0)" pointer-events="all"/></g><g><rect x="1078" y="307.5" width="150" height="65" fill="none" stroke="none" transform="rotate(-90,1153,340)" pointer-events="all"/></g><g><g fill="rgb(0, 0, 0)" font-family="Helvetica" font-weight="bold" text-anchor="middle" font-size="22px" transform="rotate(-90,1153,340)"><text x="1152.5" y="336.5">Application</text><text x="1152.5" y="362.5">Layer</text></g></g><g><rect x="1073" y="515" width="160" height="50" fill="none" stroke="none" transform="rotate(-90,1153,540)" pointer-events="all"/></g><g><g fill="rgb(0, 0, 0)" font-family="Helvetica" font-weight="bold" text-anchor="middle" font-size="22px" transform="rotate(-90,1153,540)"><text x="1152.5" y="536.5">Infrastructure</text><text x="1152.5" y="562.5">Layer</text></g></g><g><ellipse cx="648" cy="65" rx="25" ry="15" fill="#dae8fc" stroke="#6c8ebf" pointer-events="all"/></g><g><path d="M 708 140 L 568 140" fill="none" stroke="rgb(0, 0, 0)" stroke-miterlimit="10" pointer-events="stroke"/></g><g><ellipse cx="733" cy="140" rx="25" ry="15" fill="#f8cecc" stroke="#b85450" pointer-events="all"/></g><g><path d="M 560.76 129.44 L 630.24 75.56" fill="none" stroke="rgb(0, 0, 0)" stroke-miterlimit="10" pointer-events="stroke"/></g><g><ellipse cx="543" cy="140" rx="25" ry="15" fill="#e1d5e7" stroke="#9673a6" pointer-events="all"/></g><g><ellipse cx="838" cy="340" rx="40" ry="25" fill="rgb(255, 255, 255)" stroke="rgb(0, 0, 0)" pointer-events="all"/></g><g><ellipse cx="648" cy="405" rx="40" ry="25" fill="rgb(255, 255, 255)" stroke="rgb(0, 0, 0)" pointer-events="all"/></g><g><ellipse cx="418" cy="346.5" rx="10" ry="7.5" fill="#e1d5e7" stroke="#9673a6" pointer-events="all"/></g><g><ellipse cx="438" cy="327.5" rx="10" ry="7.5" fill="#dae8fc" stroke="#6c8ebf" pointer-events="all"/></g><g><ellipse cx="458" cy="345.5" rx="10" ry="7.5" fill="#f8cecc" stroke="#b85450" pointer-events="all"/></g><g><ellipse cx="628" cy="411.5" rx="10" ry="7.5" fill="#e1d5e7" stroke="#9673a6" pointer-events="all"/></g><g><ellipse cx="648" cy="392.5" rx="10" ry="7.5" fill="#dae8fc" stroke="#6c8ebf" pointer-events="all"/></g><g><path d="M 626.32 482.34 L 698 465" fill="none" stroke="rgb(0, 0, 0)" stroke-miterlimit="10" stroke-dasharray="3 3" pointer-events="stroke"/></g><g><ellipse cx="668" cy="410.5" rx="10" ry="7.5" fill="#f8cecc" stroke="#b85450" pointer-events="all"/></g><g><ellipse cx="818" cy="345.5" rx="10" ry="7.5" fill="#e1d5e7" stroke="#9673a6" pointer-events="all"/></g><g><ellipse cx="838" cy="326.5" rx="10" ry="7.5" fill="#dae8fc" stroke="#6c8ebf" pointer-events="all"/></g><g><ellipse cx="858" cy="344.5" rx="10" ry="7.5" fill="#f8cecc" stroke="#b85450" pointer-events="all"/></g><g><ellipse cx="628" cy="282.5" rx="10" ry="7.5" fill="#e1d5e7" stroke="#9673a6" pointer-events="all"/></g><g><path d="M 478 515 L 558 500" fill="none" stroke="rgb(0, 0, 0)" stroke-miterlimit="10" stroke-dasharray="3 3" pointer-events="stroke"/></g><g><path d="M 466.32 532.66 L 529.68 547.34" fill="none" stroke="rgb(0, 0, 0)" stroke-miterlimit="10" stroke-dasharray="3 3" pointer-events="stroke"/></g><g><ellipse cx="438" cy="515" rx="40" ry="25" fill="rgb(255, 255, 255)" stroke="rgb(0, 0, 0)" stroke-width="2" stroke-dasharray="2 2" pointer-events="all"/></g><g><path d="M 586.32 547.34 L 598 525" fill="none" stroke="rgb(0, 0, 0)" stroke-miterlimit="10" stroke-dasharray="3 3" pointer-events="stroke"/></g><g><path d="M 598 565 L 719.68 557.66" fill="none" stroke="rgb(0, 0, 0)" stroke-miterlimit="10" stroke-dasharray="3 3" pointer-events="stroke"/></g><g><ellipse cx="558" cy="565" rx="40" ry="25" fill="rgb(255, 255, 255)" stroke="rgb(0, 0, 0)" stroke-width="2" stroke-dasharray="2 2" pointer-events="all"/></g><g><ellipse cx="598" cy="500" rx="40" ry="25" fill="rgb(255, 255, 255)" stroke="rgb(0, 0, 0)" stroke-width="2" stroke-dasharray="2 2" pointer-events="all"/></g><g><path d="M 788 540 L 838 515" fill="none" stroke="rgb(0, 0, 0)" stroke-miterlimit="10" stroke-dasharray="3 3" pointer-events="stroke"/></g><g><ellipse cx="748" cy="540" rx="40" ry="25" fill="rgb(255, 255, 255)" stroke="rgb(0, 0, 0)" stroke-width="2" stroke-dasharray="2 2" pointer-events="all"/></g><g><ellipse cx="878" cy="515" rx="40" ry="25" fill="rgb(255, 255, 255)" stroke="rgb(0, 0, 0)" stroke-width="2" stroke-dasharray="2 2" pointer-events="all"/></g><g><ellipse cx="418" cy="515" rx="10" ry="7.5" fill="#f8cecc" stroke="#b85450" pointer-events="all"/></g><g><ellipse cx="448" cy="515" rx="10" ry="7.5" fill="#f8cecc" stroke="#b85450" pointer-events="all"/></g><g><ellipse cx="543" cy="572.5" rx="10" ry="7.5" fill="#f8cecc" stroke="#b85450" pointer-events="all"/></g><g><ellipse cx="573" cy="572.5" rx="10" ry="7.5" fill="#f8cecc" stroke="#b85450" pointer-events="all"/></g><g><ellipse cx="558" cy="553.5" rx="10" ry="7.5" fill="#dae8fc" stroke="#6c8ebf" pointer-events="all"/></g><g><ellipse cx="583" cy="500" rx="10" ry="7.5" fill="#dae8fc" stroke="#6c8ebf" pointer-events="all"/></g><g><ellipse cx="613" cy="500" rx="10" ry="7.5" fill="#dae8fc" stroke="#6c8ebf" pointer-events="all"/></g><g><ellipse cx="748" cy="538.5" rx="10" ry="7.5" fill="#e1d5e7" stroke="#9673a6" pointer-events="all"/></g><g><ellipse cx="738" cy="465" rx="10" ry="7.5" fill="#e1d5e7" stroke="#9673a6" pointer-events="all"/></g><g><ellipse cx="863" cy="515" rx="10" ry="7.5" fill="#e1d5e7" stroke="#9673a6" pointer-events="all"/></g><g><ellipse cx="893" cy="515" rx="10" ry="7.5" fill="#e1d5e7" stroke="#9673a6" pointer-events="all"/></g><g><ellipse cx="198" cy="249.9" rx="40" ry="25" fill="rgb(255, 255, 255)" stroke="rgb(0, 0, 0)" pointer-events="all"/></g><g><ellipse cx="198" cy="167.4" rx="25" ry="15" fill="#dedede" stroke="#666666" pointer-events="all"/></g><g><ellipse cx="198" cy="343.4" rx="40" ry="25" fill="rgb(255, 255, 255)" stroke="rgb(0, 0, 0)" stroke-width="2" stroke-dasharray="2 2" pointer-events="all"/></g><g><path d="M 158 412.4 L 238 412.4" fill="none" stroke="rgb(0, 0, 0)" stroke-miterlimit="10" pointer-events="stroke"/></g><g><path d="M 238 490.13 L 158 490.13" fill="none" stroke="rgb(0, 0, 0)" stroke-miterlimit="10" stroke-dasharray="3 3" pointer-events="stroke"/></g><g><rect x="-0.75" y="152.4" width="137.5" height="30" fill="none" stroke="none" pointer-events="all"/></g><g><g fill="rgb(0, 0, 0)" font-family="Helvetica" text-anchor="middle" font-size="25px"><text x="67.5" y="178.4">Component</text></g></g><g><rect x="18" y="224.9" width="100" height="55.59" fill="none" stroke="none" pointer-events="all"/></g><g><g fill="rgb(0, 0, 0)" font-family="Helvetica" text-anchor="middle" font-size="25px"><text x="67.5" y="248.7">Logical</text><text x="67.5" y="278.7">Device</text></g></g><g><rect x="23" y="315" width="90" height="50" fill="none" stroke="none" pointer-events="all"/></g><g><g fill="rgb(0, 0, 0)" font-family="Helvetica" text-anchor="middle" font-size="25px"><text x="67.5" y="336">Physical</text><text x="67.5" y="366">Device</text></g></g><g><rect x="18" y="387.59" width="100" height="52.41" fill="none" stroke="none" pointer-events="all"/></g><g><g fill="rgb(0, 0, 0)" font-family="Helvetica" text-anchor="middle" font-size="25px"><text x="67.5" y="409.8">Virtual</text><text x="67.5" y="439.8">Link</text></g></g><g><rect x="13" y="465.59" width="110" height="49.41" fill="none" stroke="none" pointer-events="all"/></g><g><g fill="rgb(0, 0, 0)" font-family="Helvetica" text-anchor="middle" font-size="25px"><text x="67.5" y="486.3">Physical</text><text x="67.5" y="516.3">Link</text></g></g></g></svg>